<svg id="svg3356" xmlns="http://www.w3.org/2000/svg" viewBox="0 0 252.87 638.43"><defs><style>.cls-1{fill:#fff;}</style></defs><path id="path3366" class="cls-1" d="M67.46,636.48c-1.35-2.51-.65-3.17,1.92-1.79s3.06.87,2.28-2.24c-.63-2.53-1.75-3.14-2.75-1.51-1.41,2.27-3.17.39-6.78-7.27-4-8.55-5.09-11.94-6.66-21.33-2.7-16.16-4.22-23.71-5.28-26.25a86,86,0,0,1-3.75-11.44c-.19-.92-1.43-5.06-2.75-9.18-3-9.36-3.06-10.78-.33-10.8,3,0,4.21-1,5-4a7,7,0,0,1,2.41-3.73c2-1.28,2.32-5.6.57-9-.82-1.61-3.19-3-8.19-4.78-7.93-2.85-7.7-2.31-5.71-13.11A196.37,196.37,0,0,0,39,488.91c.25-8.25,1.1-20.07,1.89-26.25,1.17-9.24,1.31-17.42.76-45.65L41,382.62l-3.15-3.06c-1.73-1.68-3.15-3.85-3.15-4.83,0-1.61-.54-1.72-5.86-1.21-3.22.31-10.09.81-15.27,1.1-8.42.48-9.64.35-11.67-1.3-2.45-2-2.49-1.45,1-12.92a20.19,20.19,0,0,0,.87-4.11c0-.68,1.72-4.78,3.83-9.11,3.22-6.63,3.73-8.44,3.21-11.5-.49-2.89-.12-4.57,1.8-8.17C13.91,325,15,322.36,15,321.59s2.75-7,6.11-13.83c7.13-14.51,7.13-15,.33-22.92-2.51-2.92-4.56-6-4.56-6.78s-1.62-2.28-3.58-3.28C9.08,272.62,7.87,271.31,7,268s1.53-5.52,6-5.52c4.2,0,7.61,2.39,11,7.68,4.22,6.69,5.76,2.55,2.51-6.74-1.21-3.48-1.91-8.94-2.12-16.56,0-.6-2.57-4.11-5.66-7.82s-5.63-7.41-5.63-8.23-1.14-2.7-2.54-4.17c-1.93-2-2.73-4.06-3.31-8.49-.42-3.2-1-7.36-1.29-9.23-.5-3.19-.3-3.54,3.07-5.44a19.4,19.4,0,0,0,5.72-5.26c1.17-1.78,2.71-3.24,3.42-3.24,2.43,0,2.27-2.5-.51-7.93-3.25-6.33-3-8.74,1.22-14.63,2.76-3.81,2.82-4.11,2.24-11.54-.33-4.19-1.19-12.89-1.91-19.34-2.76-24.72-3.35-30.92-4.26-45.37C14.45,88,13.85,80.4,13.62,79.32s-.66-5.12-1-9a51.67,51.67,0,0,0-1-7.6c-.21-.34-.47-6.31-.59-13.26-.23-14.88.79-18.84,4.73-18.38,2.87.34,3.42,2.35,4.75,17.63.47,5.41,1.48,15.12,2.23,21.56s1.86,16.78,2.46,23S27,108.54,27.7,113.44s1.58,13.33,1.86,18.75,1.17,14.41,2,20C33.05,163.1,32.87,165,30.26,165c-1.44,0-1.39.24.42,1.64,3.27,2.55,6.82,7.87,6.82,10.24,0,3.47,1.48,2.5,2.77-1.82a97.92,97.92,0,0,1,3.9-10c1.49-3.29,2.71-7.51,2.71-9.37,0-2.87,1.06-11.09,3.48-27.29.58-3.91,2-5.89,3.68-5.24.7.27,3.77-2,7-5.21l5.71-5.69,11.16-2c8.41-1.54,11.5-2.5,12.55-3.89,2.53-3.34,1.75-4.78-3.82-7-4.82-2-5.48-2.59-7.5-7.17a25.93,25.93,0,0,1-2.22-8.25c0-7.14-6-18.26-9.91-18.28-1.5,0-6-5.06-6-6.73,0-.8,1.65-2.6,3.67-4A59.77,59.77,0,0,0,72,48.44c2-2.15,4.41-4.45,5.23-5.12a4.24,4.24,0,0,0,1.5-2.87A6.41,6.41,0,0,1,80.4,37c.91-1,4.48-5.45,7.93-9.91,7.55-9.71,12.81-14.5,19.9-18.08,5-2.56,5.73-2.66,14.39-2.17,9.14.52,17.71,2.12,19.36,3.63s4.68.78,7.55-2c2.65-2.57,3.12-2.72,5.44-1.64,1.69.78,2.34,1.64,1.95,2.57-2.19,5.26-2.54,6.58-1.91,7.2.38.38,1.74-.55,3-2.08,1.69-2,2.19-3.52,1.85-5.58a6.76,6.76,0,0,1,.23-3.75c1.73-2.36,13.35-6.48,13.35-4.73a13.13,13.13,0,0,1-2.35,2.77,7.58,7.58,0,0,0-2.28,4.49c.05,2,.12,2.05,1.17.41,3-4.65,4.64-6,8.45-7.12s4.52-.95,8,.81a18.34,18.34,0,0,0,6.69,2c2.67,0,4.22,1.8,1.68,1.94-.65,0-.12.51,1.17,1.06L201.09,9a34.67,34.67,0,0,0,6.57,1.81c5.57.92,8.8,2.28,14.53,6.1A35.91,35.91,0,0,0,230.05,21c3.09.77,8.8,6.08,11.71,10.88,3.48,5.76,2.15,22.47-2.5,31.52-1.83,3.56-2.35,3.9-6.76,4.49-3.31.44-4.93,1.13-5.28,2.24-.27.88-1.77,4.16-3.32,7.29a48.45,48.45,0,0,0-3.47,8.9c-.4,2-1.3,3.33-2.29,3.52-4.75.92-17.44-9.1-22.53-17.79-4.19-7.14-6.29-8.54-13.26-8.83-8.87-.37-12.46-2.45-15.7-9.07-1.86-3.82-3.16-5.39-4.46-5.39-1.86,0-4.69,4.22-4.69,7,0,2.42-7.31,16.21-10.59,20-4.95,5.67-5.49,6.55-6.35,10.27-1.28,5.52,2.36,12.13,9.72,17.67a52.35,52.35,0,0,0,7.22,4.83c.77.25,6.21,2.82,12.08,5.72,13.56,6.69,17.13,10.48,18.11,19.18a92,92,0,0,0,1.7,10.05,114.36,114.36,0,0,1,1.81,13.12,99,99,0,0,0,2.29,14.35A60.47,60.47,0,0,1,195,184.24c0,6.33.45,8.87,2.25,12.84,5.3,11.66,6.77,16.69,4.13,14-1.74-1.74-2.63-1.35-2.63,1.14a5.62,5.62,0,0,0,2.57,4.14c2.28,1.65,2.65,2.67,3.18,8.75a74.42,74.42,0,0,0,1.65,10.62c1.56,5.57,3.72,20.33,3.18,21.74a2,2,0,0,1-1.71,1.23c-.81,0-1.45-1.86-1.85-5.39-.34-3-.82-6.13-1.07-7-.55-2-2.2-2.18-2.2-.24,0,.78.42,1.41.94,1.41s.94.63.94,1.41c0,1.58-1.47,1.89-2.34.48-.77-1.24-2.49-14.29-2.72-20.64a16.31,16.31,0,0,0-2-7.94L195.47,218l-.63,11.22c-1.52,26.81-3.33,36.29-7.05,36.82-1.7.25-2.26-.4-3.25-3.75a35.25,35.25,0,0,0-3.81-7.92c-3.12-4.66-3.18-5.41-.66-8.6l1.94-2.47-.57,5-.57,5,2.61-.31c2.4-.28,2.65,0,3.08,3.37,1.17,9.19,3.85,2.08,5.79-15.38.85-7.66.84-14.8,0-31.45-1.43-26.7-1.36-26.15-3.25-26.52a2.12,2.12,0,0,1-1.56-2.06c0-2.79-2-3.29-3.9-1-2.27,2.81-2.25,5.67.05,5.67,1.15,0,2,.91,2.42,2.58a11.56,11.56,0,0,0,1.85,4c2.13,2.48,2.49,11,.72,17-.88,3-1.93,5.49-2.31,5.49s-.72-2.85-.74-6.33-.6-7.34-1.33-8.67L183,197.34l-.95,2.49a61.25,61.25,0,0,0-1.94,8c-.55,3-1.47,7-2,8.77a119.84,119.84,0,0,0-3.31,17.57c-.33,2.51-.16,4,.47,4,1,0,2-3.1,4-12.65,1.42-6.93,3.12-9.27,2.39-3.28-1.51,12.34-4.08,21.56-6,21.56-.68,0-4.23-6.48-5.21-9.52a3.53,3.53,0,0,1,1.29-3.18c1.06-1,2-3.5,2.41-6.2.33-2.52,1-4.81,1.42-5.08,1.14-.71,1-11.65-.13-11.65-.51,0-.93.82-.93,1.82a3.12,3.12,0,0,1-.94,2.4c-.52.32-.94,2.23-.94,4.24,0,2.71-.49,3.93-1.87,4.67-1.93,1-2.61,3.75-.94,3.75,1.19,0,1.23,3.46,0,4.19-.49.31-1.34-1.1-1.88-3.13-.95-3.52-3.18-5.61-4.21-3.94-.27.43.34,3.26,1.35,6.29a36.32,36.32,0,0,1,1.86,8.11c0,2.16,2.81,12.57,4.32,16.14.56,1.3,5,8.61,8.43,13.91,3.13,4.82,11.34,11.53,15.27,12.48a41.16,41.16,0,0,1,6.69,2.72c2.32,1.16,5.7,2.8,7.5,3.65,4,1.88,11,7.69,10.15,8.5-.64.64-2.44-.2-18.58-8.65-12.93-6.77-15-7.52-15-5.49,0,.81.33,1.47.73,1.47s1.46,1.23,2.35,2.73,4.74,5.09,8.55,8a61.3,61.3,0,0,1,10.38,9.92c1.9,2.59,4,4.7,4.7,4.7s1,.69.8,1.65.65,4.08,2,7.06,2.39,6.26,2.39,7.29a16.47,16.47,0,0,0,1.73,5.37,61.32,61.32,0,0,1,3.35,10.51c.89,3.86,1.82,7.77,2.08,8.67.62,2.17,4,2.06,6.9-.23,1.75-1.37,3.84-1.84,8.24-1.86,4.2,0,6-.4,6.39-1.35.6-1.54-2.31-12.54-3.51-13.28-.44-.28-.8-1.57-.8-2.88a9.27,9.27,0,0,0-1.88-4.75,8.64,8.64,0,0,1-1.87-3.71,13.88,13.88,0,0,0-1.57-4.33c-2.12-4.07-3.15-10.11-2.06-12.13.65-1.23.26-2.73-1.5-5.73-2.53-4.32-3-6.24-1.42-6.24s4.66,5.82,4.67,8.53a14.75,14.75,0,0,0,1.46,5.36,37.18,37.18,0,0,1,2.38,7.88c1.83,9.78,2.49,12.52,4.09,17.07a36.71,36.71,0,0,0,3.33,7c.94,1.33,2,4.84,2.32,7.81.69,6.06.59,6.13-6.53,4.48-3-.69-4.54-.51-7.77.92a39.93,39.93,0,0,1-7.15,2.37c-2.84.54-3.28.29-5.16-2.91a42.94,42.94,0,0,1-3.5-8.75c-3.89-14.18-4.22-15.2-6-18.38a23.67,23.67,0,0,1-2.21-6.29c-.76-4.4-9.19-15.68-18.73-25.1-3.92-3.86-7.11-7.52-7.11-8.13a1.6,1.6,0,0,0-.78-1.42c-1.46-.59-9.54-13.19-9.54-14.88a9.42,9.42,0,0,0-2.17-4.34c-4.74-5.77-10.19-24.19-11.75-39.67-.88-8.75-2.5-8.52-7.89,1.12-2.39,4.28-4.79,8.3-5.35,8.93-1.57,1.8-5.74,2.52-7.65,1.32s-13.8-1.42-15.67-.24c-1.3.83-.22,1.15,9.23,2.78,8.22,1.42,12.47,4.09,16.95,10.64,2.28,3.34,5.91,8.6,8.06,11.69,5.3,7.62,8,12.6,7.27,13.31-.34.33-1.1-.2-1.68-1.17a50.78,50.78,0,0,0-3.18-4.36,10.2,10.2,0,0,1-2.1-3.45c0-.47-1.27-2.07-2.82-3.55-3.23-3.1-3.53-2.12-1.08,3.52l4.78,11c2.69,6.19,6.12,17.12,8.52,27.19.43,1.8,1.27,5,1.87,7,1.2,4.17,2.36,10.75,3.61,20.62a68.27,68.27,0,0,0,2.28,10.78c2,5.89,4.55,18.69,3.89,19.75-1,1.7-2.06.85-2.62-2.17-.31-1.67-1.21-6-2-9.61a62.06,62.06,0,0,1-1.43-9.3,23.43,23.43,0,0,0-.88-5.63c-1-3.36-2.37-8.67-3.71-14.6-3.93-17.36-5.12-22.26-5.78-23.9-.41-1-1.42-4-2.24-6.57-2.45-7.73-3.56-8.35-3-1.64.53,5.88-.27,7.39-2.25,4.22-1-1.67-1-1,.58,12.19.35,2.93.18,4.45-.5,4.45s-1-.92-1-2a20.39,20.39,0,0,0-.91-4.92c-.5-1.59-2.21-8.37-3.81-15.07-3.61-15.18-3.57-15.06-4.69-13.94-.58.58-.56,3.4.07,7.89.54,3.84,1.35,9.73,1.8,13.08,1.07,7.84,2.75,19.57,3.84,26.72,3.27,21.57,3.74,40.68,1.24,50.34-1.55,6-2.43,7.39-3.5,5.67-.24-.39.27-4.71,1.14-9.61,1.61-9.07,1.37-22.81-.65-37-.44-3.1-1.51-11.11-2.38-17.82-1.75-13.41-3.68-26.68-5.67-38.9-2.25-13.86-3.47-24.58-2.86-25.19,1.33-1.33,3.25,3.34,3.25,7.88,0,4.93,1.39,10.46,3.05,12.15.6.61.7-.84.28-4.22-1.65-13.35-2.13-16.5-2.74-17.81-1.26-2.75-9.19-5.62-15.52-5.62h-6l.76,6.32a86.14,86.14,0,0,1,.63,10.08c-.17,5.44-1.8,59.8-2.41,80.52-.29,9.74-.75,17.93-1,18.21-1.43,1.42-1.67-3-1.52-27.91.1-18.25-.17-27.22-.82-27.22s-1,7.59-1,22.44c0,13.95-.35,22.66-.94,23s-1,0-1-.64-.4-.39-.82.64c-1.13,2.82-.66,18.55.57,19,.57.19,1.93-.79,3-2.18s2.17-2.35,2.39-2.13a37.27,37.27,0,0,1,1.37,6.47c.8,5,1.48,6.49,3.82,8.41,1.86,1.54,2.83,3.2,2.83,4.83,0,1.36.63,2.72,1.41,3a5.51,5.51,0,0,1,2.32,2.91,3.36,3.36,0,0,0,2.64,2.37c2.74,0,3.08-1,1.24-3.64s-4.1-8.63-3.45-9.28c.92-.92,3.33.75,3.4,2.34.09,2.21,2.87,6.88,4.84,8.12,2.71,1.71,2.92-.15.36-3.2s-3.86-6.54-3.2-8.53c.21-.63,1.36.43,2.54,2.35,3.48,5.62,5.68,6.63,11.55,5.26a49,49,0,0,0,9.92-3.85,46.3,46.3,0,0,1,9.37-3.73c5.41-1.26,10.49-3.47,10.49-4.55,0-.44.83-.58,1.86-.32,1.4.37,2.11-.17,2.88-2.19a15.18,15.18,0,0,0,1-4.09c0-1.79-3.53-20-4.7-24.38-.49-1.8-1.56-5.73-2.38-8.72a41.69,41.69,0,0,1-1.48-8.24,14.83,14.83,0,0,0-1.48-5.67c-1.46-2.82-1.11-6.63.46-4.95,1.21,1.3,5.54,14.41,6.18,18.68.31,2.06.92,5.43,1.37,7.5,2,9.36,2.89,14.46,3.3,19.68,1,12.43,1.51,14.53,3.65,14.56s5.93,2.43,5.17,3.2c-.46.45-7.76.72-17.54.64-3.26,0-6.64.31-7.5.76a44.08,44.08,0,0,1-5.57,2c-2.19.64-4,1.69-4,2.32,0,1.53,4.42,4.36,7.95,5.08,4.43.91,3.69,3.39-.91,3a12.91,12.91,0,0,1-4.68-1.05,27.19,27.19,0,0,0-6-2c-4.82-1.21-5.17-1.16-9.38,1.22-6.73,3.81-6.39,4.87,5.06,15.92,5.5,5.31,13.11,13.24,16.9,17.63,9.61,11.12,5.63,7.17,58.21,57.65,17,16.31,25.25,25.62,23.37,26.35-2.53,1-5.52-.39-10.06-4.55-2.38-2.19-8.67-7.57-14-11.95-9.61-7.95-31-26.15-31.85-27.14-1.06-1.17-17.58-15.78-20.63-18.23-1.8-1.45-5.39-4.63-8-7.07s-7.48-6.79-10.89-9.67-7.41-6.43-8.87-7.89L145.85,413l-1.13,3.75c-1.58,5.21-1.54,10.38.11,13.57,1,1.84,1.38,5.39,1.33,11.17,0,4.66.19,8.88.5,9.38.67,1.08,1.89,6.89,3.84,18.28,1.66,9.72,1.05,22.13-1.1,22.13-1,0-1.27-1.7-1.27-6.87,0-8.64-2.39-25.93-4.18-30.2-1.63-3.89-3.33-4.23-3.32-.66,0,5,1.19,12.37,1.9,11.93,1.48-.91,2.08,5.18,1.9,19.11-.11,7.92-.64,15.38-1.18,16.58-1.15,2.52-.21,6.34,1.05,4.29.63-1,1.11-1,2.76,0,2.24,1.4,2.55,5,1,11.82-.49,2.19-1.26,5.66-1.7,7.71a16,16,0,0,1-1.77,4.92c-1.64,2-2.36,12.61-2.13,31.19.29,23.54.19,26.65-1,30.19-.75,2.29-.65,4,.44,7.19,1.16,3.42,1.28,6.3.63,15.61-.85,12.34-1.14,13-6.63,14.71-7.28,2.32-7.27,2.32-9.61-.21l-2.26-2.43-6.3,2.37a91.23,91.23,0,0,0-8.84,3.77c-7,3.88-26.69,7-32.87,5.25-1.75-.51-3.12-.49-3.45,0-1,1.57-4.08.91-5.15-1.09Zm27-3.23c5-1.3,10-2.91,11-3.58a91.44,91.44,0,0,1,9.4-4.16c6-2.35,8.68-2.91,13.31-2.75,3.2.12,6.17-.21,6.6-.73s.64-3.78.44-7.26c-.3-5.49-.59-6.33-2.15-6.33a1.73,1.73,0,0,0-1.86,1.64c-.1,2.64-1.66-1.55-1.74-4.69-.13-5.07-2.67-1.95-4.23,5.19a4.71,4.71,0,0,1-3.13,3.54,56.46,56.46,0,0,0-5.45,2.44c-2.69,1.41-3.22,1.4-7.5-.18a26.12,26.12,0,0,1-6.73-3.59A9.27,9.27,0,0,0,99,610.7a23.26,23.26,0,0,1-3-.75c-1.38-.43-2.25.36-4,3.64a30.62,30.62,0,0,1-6.56,7.71c-8.47,6.87-9.73,8.31-9.08,10.38.61,1.9,4.06,3.72,7.32,3.87a80.42,80.42,0,0,0,10.75-2.3Zm4.73-15.51c-.9-.53-1.64-1.36-1.64-1.85,0-1.27,3.16-1.1,4.5.23C104.41,618.54,102.43,619.65,99.14,617.74Zm-17.38,1.07c3.64-3.72,6.36-7.32,6.36-8.41,0-1.27-1.76-3.08-5.31-5.45-2.92-2-5.86-4-6.52-4.45s-1.38-.71-1.61-.47c-.91,1-1.12,25.28-.22,25.28C75,625.31,78.26,622.39,81.76,618.81Zm57-8.08c0-6.37-.83-8.5-2.34-6-.87,1.39.57,14.11,1.52,13.52C138.38,617.93,138.75,614.56,138.75,610.73Zm-69-5.57a183.24,183.24,0,0,0,1.91-20.63,114,114,0,0,1,2.51-21.09,86.51,86.51,0,0,0,2.18-13.6l.1-4.68-6.84-.47c-4.36-.3-7.12-.94-7.63-1.76s-1.2-1-1.7-.73-.19,2.67.91,5.94c2.17,6.42,3.64,17.76,4.07,31.24.17,5.41.6,13.74,1,18.51l.66,8.67H64.42c-1.76,0-2.52-.57-2.82-2.11s-.43-1.49-.52.71c-.14,3.35,1.11,5.65,2.57,4.74,1.08-.66,1.36-.15,2.47,4.63.58,2.51.73,2.61,1.38.94A97.36,97.36,0,0,0,69.71,605.16ZM67.5,583.59c0-1.29.42-2.34.94-2.34s.94,1,.94,2.34-.43,2.35-.94,2.35S67.5,584.88,67.5,583.59Zm0-14.06c0-5.31.38-8.91.94-8.91s.94,3.6.94,8.91-.38,8.91-.94,8.91S67.5,574.84,67.5,569.53ZM67,553.6c-.67-3.58-.08-6.1,1.44-6.1.53,0,1,2.09,1,4.69C69.38,557.57,67.88,558.45,67,553.6Zm50.57,58.11c2.4-1,3.4-2,3.4-3.42,0-1.1,1.51-3.85,3.37-6.12s3.15-4.68,2.87-5.39-2.29-1.59-4.5-2a11.44,11.44,0,0,1-6.73-3.58l-2.72-2.91L111,590.94c-1.23,1.43-2.24,3.23-2.24,4a13,13,0,0,1-1.47,4.24c-1.4,2.72-1.36,2.93.94,5.24,3,3,3.07,4.39.06,3.63s-3,.68.13,3.13c2.94,2.32,4.61,2.41,9.13.53Zm-5.51-1.4c-.32-.51.08-.93.88-.93s1.47.42,1.47.93a.92.92,0,0,1-.89.94A2,2,0,0,1,112,610.31Zm-11.82-12.66a18.42,18.42,0,0,0,.63-7.5c-.44-2.34-.27-3.27.58-3.27.67,0,.27-.91-1-2.11-2-2-2.22-2-3.34-.51a4.46,4.46,0,0,1-3.89,1.41c-3.39-.25-3.84,1.46-1.69,6.4l1.62,3.71.58-4A14.47,14.47,0,0,1,95,587.23c1.1-1.1,2.54,4.32,2.54,9.55,0,2.8.33,5.1.73,5.1S99.53,600,100.21,597.65Zm-19.59-.93a6.22,6.22,0,0,0-1.87-3.28,6.42,6.42,0,0,1-1.87-2.82.94.94,0,0,0-.94-.93c-.52,0-.94,1.41-.94,3.14,0,2.32.54,3.4,2.11,4.15C80,598.39,80.62,598.34,80.62,596.72Zm7.83-3.52c-.72-3.81-1.47-4.67-3.45-3.91-2.27.87-1.92,2.79.91,5a16.56,16.56,0,0,0,2.79,1.94C88.87,596.25,88.76,594.88,88.45,593.2Zm-27.73-1.87c-.21-3.35,0-3.94,1.39-3.71,2.54.43,1.93-1-1.18-2.81-1.94-1.1-2.8-2.32-2.8-3.93,0-1.28-.43-2.59-.94-2.91s-.94-.27-.94.1c0,.86,1.82,12.31,2.41,15.13C59.43,596.89,61,595.47,60.72,591.33Zm47.06-1.83c.68-2.22,1.81-5.84,2.51-8,1.7-5.35,1.62-8-.12-4.42-3.39,7.05-5.17,12.1-5.17,14.67C105,595.44,106.26,594.44,107.78,589.5Zm31-2.28a17.14,17.14,0,0,0-1.87-6c-2.38-4.65-2.36-6.63.1-11.46,1.83-3.58,1.94-4.81,1.35-15.67-.76-14.24-.76-14.44,0-33.81.63-16.58.95-14.22-5.26-38.8-.79-3.12-3.72-10.57-8.92-22.67a8.94,8.94,0,0,0-8.17-5.09c-4.39,0-13.35,8.13-14.77,13.39-1.36,5-.93,7.87,5.06,33.49,1.27,5.41,2.8,12.79,3.41,16.4a61.17,61.17,0,0,0,1.89,8.44c.43,1,1.74,4.41,2.91,7.5s3.28,7.94,4.68,10.78a87.73,87.73,0,0,1,3.77,8.91,22.9,22.9,0,0,0,5.26,7.58c4.34,4.13,4.79,5.58,2.65,8.41-1.22,1.61-1.38,1.64-1.41.21-.05-2.92-3.08-8.08-5.05-8.6s-3.08.46-4,3.88c-1.28,4.81,2.83,11.48,6,9.71,1.33-.75,1.78-.26,2.76,3,1.4,4.66,1.46,6.27.32,8.07-.67,1.06-1.14,1.11-2.21.22s-1.81-.75-3.58.7l-2.23,1.82,2.33.87a35.23,35.23,0,0,0,8.68.92c6.1,0,6.33,0,6.33-2.25Zm-55.82-5.54c5.62.6,6.11.49,10.23-2.42,2.38-1.68,4.55-3.76,4.82-4.62s4-3.92,8.31-6.77c10-6.65,10.37-8.06,5.69-21.15-1.79-5-3.62-9.91-4.08-10.94a121.65,121.65,0,0,1-5.32-15c-.34-1.55-2-7.24-3.79-12.66-4.38-13.58-4.8-15-5.5-18.75-.34-1.8-1.64-6.53-2.89-10.5a56.68,56.68,0,0,1-2.28-9c0-1-1.16-3-2.59-4.5a42.74,42.74,0,0,1-5.2-7.64,188.32,188.32,0,0,0-10.7-17.15c-1.07-1.51-2.21-6.44-3.21-13.89-1.45-10.79-2.07-13.27-3.08-12.26-.22.23,0,4.2.56,8.83s1.15,10.95,1.38,14a35.32,35.32,0,0,0,1.2,7.5c.72,1.71,4.26,15.93,5.18,20.75A64.69,64.69,0,0,0,73.52,472,29,29,0,0,1,75,477.86c0,1.68,2.38,9.45,6.65,21.69,3.28,9.42,3.37,12.19.62,17.85-2.45,5-3.19,5.69-6.2,5.71-2.27,0-9.42,3.48-10.67,5.17a2.73,2.73,0,0,0-.12,2.34,34,34,0,0,1,1.19,4.14c.5,2.27,1.49,3.06,6,4.72,5.1,1.9,11,6.39,11,8.36a5.2,5.2,0,0,1-1.25,2.4c-1.9,2.25-7.14,29.9-6.32,33.35.4,1.7.48,1.67.8-.33s.57-2.19,6.26-1.58Zm38.43,2.23c1.32-.6,2.39-1.44,2.39-1.87,0-1.21-5.1-.94-6.37.34C114.78,585,117.08,585.86,121.36,583.91Zm-15.66-5.2c1.39-3,1.53-5.9.29-5.9s-1.57.81-2.32,4.92S104,582.35,105.7,578.71Zm34.92-.74c0-.77-.42-1.41-.93-1.41s-.94.64-.94,1.41.42,1.41.94,1.41S140.62,578.74,140.62,578ZM56,570.16c-.34-3.23-.19-5.86.37-6.42s.5-2.3-.43-5.08a45.23,45.23,0,0,1-1.68-6.47c-.23-1.8-.85-2.35-2.65-2.35s-2.3.46-2.18,1.88c.21,2.49,6.26,23.9,6.75,23.9C56.34,575.62,56.26,573.16,56,570.16Zm4.28-13.77c-.51-2.63-2.11-4.15-2.11-2,0,2,1,4.35,1.85,4.35C60.36,558.75,60.47,557.69,60.23,556.39Zm2.37-22.66c-2.2-5.61-.6-8.21,7.48-12.17,5.15-2.52,7.51-5.52,6.48-8.22-1.56-4.06-34.37.64-34.37,4.93,0,.4,2.06,1.48,4.59,2.38,7.3,2.63,7.82,3.29,8.45,10.54l.55,6.47,3.28.52c4.46.71,5.2-.22,3.54-4.45ZM45.26,501.49a111.72,111.72,0,0,0,.47-13.05l-.26-5.16-1.2,7c-.66,3.87-1.63,9.47-2.15,12.45-1,5.55-.59,7.61,1.33,7,.62-.21,1.39-3.71,1.81-8.25Zm18.49,5.39a83.82,83.82,0,0,1,10.55.76c3.57.59,4.45.46,4.45-.61a3.73,3.73,0,0,0-1-2.29c-1.15-1.15-4.67-13.56-4.69-16.53a27,27,0,0,0-1.47-6.31,112.6,112.6,0,0,1-3.84-15.27,5.9,5.9,0,0,0-1.49-3.19c-1-.6-.84.91,1.15,14.22A36.18,36.18,0,0,0,68.87,484c1,2.44-.89,2-2-.46a42.6,42.6,0,0,1-2-5.86c-.54-2.07-1.41-5.23-1.94-7-1-3.26-1-3.26-.58.94.21,2.32.66,5.8,1,7.74.41,2.32.26,3.51-.42,3.51s-1.05-.63-1.05-1.4-.42-1.41-.93-1.41-.94,1.27-.94,2.81c0,1.88.47,2.81,1.41,2.81.77,0,1.4.46,1.4,1s-1,.87-2.11.7c-1.65-.23-2.17-1-2.41-3.58-.33-3.64-2-6.22-2.09-3.23-.2,6.62-1.67,23.08-2.11,23.51a1.31,1.31,0,0,1-1.5-.07c-.61-.37-.76-3.27-.4-7.87.49-6.41-.38-29.81-1.09-29-.15.16-.77,8.3-1.37,18.07s-1.36,19-1.66,20.54l-.55,2.76,5.07-.79a85.7,85.7,0,0,1,11.16-.75ZM100.38,492a20.4,20.4,0,0,1-1-5.51c0-1.44-.43-2.88-.94-3.2-1.82-1.12-.69,9,1.62,14.53C101.15,500.45,101.45,495.05,100.38,492Zm41-2.78c-.39-3.88-2.64-4.74-2.64-1a6.83,6.83,0,0,0,.62,3.36C140.81,493,141.66,492,141.39,489.21ZM138,475c-.5-.61-.61-2.79-.26-4.85,1-5.64-1.25-20.27-3.29-21.76a6.2,6.2,0,0,0-2.41-1.21c-1,0-1,2.57.08,3.22.8.49,1,1.67,2.37,12.14a25.3,25.3,0,0,0,1.09,5.39c.27.44.07.81-.45.81-1.71,0-5.72-11.86-5.72-16.89,0-2.18-.76-2.29-3.14-.49-2.08,1.57-1.75,2.89,3.18,12.69,4.38,8.72,6.52,13.59,6.52,14.85a13.89,13.89,0,0,0,1.15,3.61c1.13,2.6,1.15,2.57,1.46-1.89.17-2.49-.09-5-.58-5.62Zm-91.19-.92c-.07-4.33-.28-5.21-.84-3.47-1.12,3.49-1.12,10.54,0,9.85C46.45,480.15,46.83,477.28,46.78,474.09Zm10.84-5.28a1.08,1.08,0,0,0-.42-1.46c-.52-.32-1,.07-1,.88C56.25,469.87,56.81,470.12,57.62,468.81Zm39.87-2.64c0-1.67-1.56-1.45-2.24.32-.78,2,.37,3.77,1.42,2.13a5.74,5.74,0,0,0,.82-2.45Zm-50.9-4.67c-.24-.91-.45-.39-.47,1.16s.18,2.29.43,1.65a5.4,5.4,0,0,0,0-2.81Zm9.34-2.36c-.26-.64-.47-.12-.47,1.17s.21,1.82.47,1.17A3.61,3.61,0,0,0,55.93,459.14Zm40.15.28c.65-2.05,10.92-7.54,14.11-7.54a4.9,4.9,0,0,0,3.32-1.5c1.11-1.34.77-1.42-3.4-.79A26.12,26.12,0,0,0,95.9,457.5c-2.25,2.52-2.67,3.75-1.28,3.75C95.11,461.25,95.76,460.43,96.08,459.42Zm-2.35-4.7c5-9.81-.58-26.82-6.07-18.46a10.66,10.66,0,0,1-8,4.36c-1,0-1.83.59-1.83,1.31,0,1.49,2,2.45,5.07,2.45,1.61,0,2.59,1.08,4.19,4.63,1.16,2.55,2,5.19,1.93,5.86C88.35,459.73,91.22,459.64,93.73,454.72Zm-34.6-12.53c-.71-.71-1,.1-1,2.78,0,4.92,1.32,6.24,1.71,1.71C60,444.76,59.68,442.74,59.13,442.19Zm54.54,3.21c1.87-.71,2.48-1.77,3-5.17.35-2.36.37-4.72,0-5.26a37.8,37.8,0,0,1-1.48-7.19c-.48-3.41-1.72-7.56-2.74-9.22-2.15-3.48-2.26-5.38-.75-12.68.85-4.15.84-5.94-.06-8.11-1.17-2.84-6.09-5.9-9.5-5.9-1.67,0-1.78.48-1.26,5.48.63,6-.59,9-5.23,12.95-2.11,1.79-2.38,2.67-2.21,7.41.1,3,.63,5.82,1.17,6.37a5.72,5.72,0,0,1,1,3.37,32.81,32.81,0,0,0,1.45,7.08,20.82,20.82,0,0,1,.85,8.82l-.6,4.13,7-.6a50.48,50.48,0,0,0,9.34-1.48Zm8.21.85a.94.94,0,1,0-.94.94A.95.95,0,0,0,121.88,446.25Zm66.62-2.69c-.51-1-5-5.56-9.87-10.21s-8.94-8.93-8.94-9.49-.85-1.56-1.88-2.2-1.87-1.63-1.87-2.2c0-1.73-7.32-9.06-8.39-8.4-1.47.91-4.47-.27-5.15-2a1.85,1.85,0,0,1,.42-2.15c.62-.38-.58-2.15-3-4.48-7.59-7.25-10.83-9.58-13.31-9.58a3.51,3.51,0,0,1-3.55-2.34c-.58-1.29-1.39-2.34-1.78-2.34-1.79,0-6.79-5.36-8.91-9.55-2.46-4.84-6.19-7.41-6.82-4.68-.19.82.72,2.39,2,3.5a11.11,11.11,0,0,1,3,4c.35,1.09,2.64,3.79,5.11,6a35.18,35.18,0,0,1,5.61,6.14c.62,1.16,1.64,2.11,2.26,2.12,1.37,0,15,12.43,21.11,19.2,5.33,5.92,32.89,30.47,34.2,30.47C189.11,445.31,189,444.52,188.5,443.56Zm-57.78-1c2.86-1.09,3.38-4.71.68-4.71-2.14,0-5.25,3.27-4.41,4.63s.75,1.22,3.73.08Zm8.8-2.06c-.38-2.57-2.64-3.44-2.64-1,0,1.95.75,3.05,2.09,3.05.47,0,.71-.92.55-2Zm-54.67-5c4.14-3.61,3.92-4-1.09-1.9-4.53,1.9-4.68,1.86-5.46-1.64l-.68-3-.87,3c-1,3.58.28,6.79,2.75,6.79C80.39,438.75,82.8,437.28,84.85,435.49Zm37.75-2.58c1.18-1.36,1.24-2.51.38-7a154.37,154.37,0,0,1-1.46-17.13c-.24-6.45-.57-12.3-.74-13-.56-2.32,2-2.18,2.89.16a5.43,5.43,0,0,0,2.35,2.86,2.5,2.5,0,0,1,1.45,2.24c0,1.58-.1,1.58-1.26,0-.68-.89-1.46-1.4-1.74-1.13-1.2,1.21.5,13.32,2.41,17.08,1.69,3.36,1.81,4.15.7,4.84-1.66,1-2.69,11.31-1.13,11.31.58,0,1-1.31,1-2.91,0-2.11.51-3,1.88-3.39,2.33-.61,2.52-4.74.39-8.84-1-2-1.38-4.79-1.17-9.49.45-9.67,2.14-9,3.4,1.4.86,7,1.46,9,3.11,10.37,1.13.91,2.48,1.52,3,1.34.9-.3,4.14-8.29,4.3-10.62,0-.58-2-3.19-4.62-5.81s-4.69-5.21-4.69-5.75a1,1,0,0,0-1-1c-.56,0-3.78-2.35-7.16-5.22s-6.49-4.87-6.9-4.45c-1,1-1.37,14.3-.45,16.93.55,1.58.38,2.11-.68,2.11a2.38,2.38,0,0,0-2,1.49c-1.15,3-.51,5,2,6.21s2.59,1.35,2.91,11.53c.18,5.67.55,9.67.82,8.9A11.8,11.8,0,0,1,122.6,432.91Zm12.47-24.71c.05-1.09.27-1.31.57-.56a1.88,1.88,0,0,1-.07,1.79C135.25,409.75,135,409.19,135.07,408.2ZM71.89,432c-.3-.75-.52-.52-.57.57s.18,1.54.5,1.23A1.9,1.9,0,0,0,71.89,432Zm68.73.18a.94.94,0,1,0-.93.93A.94.94,0,0,0,140.62,432.19ZM81.21,418.12a1.18,1.18,0,0,0,1.29-1c0-.63,1.12-.88,2.81-.63,2.56.38,2.81.17,2.81-2.24,0-2.7-2.06-3.68-3.34-1.6-.36.57-2.49,1.86-4.74,2.85-4.24,1.88-4.54,2.31-3.47,5.1.58,1.5.75,1.47,2-.39a4.34,4.34,0,0,1,2.65-2ZM75,411.65c0-.46,1.29-1.29,2.86-1.84,2.51-.87,2.74-1.24,1.84-2.9A3.7,3.7,0,0,0,76.84,405c-2,0-2.46,1.38-.77,2.43.69.42.18,1.13-1.4,2-2.72,1.42-3.3,3.11-1.08,3.11C74.37,412.5,75,412.12,75,411.65Zm-28.42-6.83c-.3-.74-.52-.52-.57.57s.18,1.54.49,1.23A1.87,1.87,0,0,0,46.58,404.82Zm39.89-4.19L85.54,398l-.67,2.52c-.78,2.95.16,5.17,1.59,3.74.62-.62.63-1.84,0-3.6Zm7.28,2.44a.91.91,0,0,0-.94-.88c-.51,0-.93.66-.93,1.46s.42,1.2.93.88A2,2,0,0,0,93.75,403.07Zm-37-9c-.34-2.24-1.06-4.07-1.6-4.07s-.75.93-.45,2.11.85,4,1.24,6.33C56.88,403.93,57.62,399.91,56.75,394.07ZM46.58,399.2c-.3-.75-.52-.53-.57.57s.18,1.54.49,1.23A1.87,1.87,0,0,0,46.58,399.2Zm33.85.31c.32-1-.3-1.12-2.74-.6-4.78,1-5.73,2.52-1.36,2.17C78.38,400.91,80.2,400.22,80.43,399.51Zm7.63-8.28a3.39,3.39,0,0,0-.87-2.64c-.58-.35-.91,1.15-.87,3.93.05,3.38.26,4,.87,2.64A13.25,13.25,0,0,0,88.06,391.23Zm-13.55,3.28c2.74,1.25,7,1.5,7,.41,0-1.26-5.48-3.19-8.16-2.88-1.75.21-2.7.92-2.9,2.18-.23,1.49-.1,1.59.63.52S72.51,393.59,74.51,394.51ZM94,392.64c-1.43-1.43-2.49-.37-1.69,1.7.47,1.22.87,1.34,1.71.5S94.8,393.49,94,392.64Zm-47.07-2.17a3.81,3.81,0,0,0-.94-2.81c-.56-.35-.94.79-.94,2.81s.38,3.16.94,2.81A3.82,3.82,0,0,0,46.88,390.47Zm34.68-1.77c0-1.56-3-2.47-5.76-1.75-1.93.51-1.94.58-.29,1.79,2.26,1.65,6,1.63,6,0Zm15-2.35c0-.93-2.26-2-4.29-2a1.37,1.37,0,0,0-1.33,1.4c0,.94.94,1.41,2.81,1.41C95.3,387.19,96.56,386.81,96.56,386.35Zm16-1.74c.75-1.95.63-3.89-.49-8a40.93,40.93,0,0,1-1.49-7.62,19.61,19.61,0,0,0-1.52-5.87c-1.22-2.89-1.5-6.56-1.38-18.07.09-7.95.31-14.7.5-15,.92-1.52,3.28-27.78,3.8-42.28.32-9,1-18.3,1.43-20.62,1-4.73,1.2-23.74.35-26.89-.64-2.4-3.18-1.91-3.18.61a8.22,8.22,0,0,1-1.7,3.89,36.28,36.28,0,0,0-3.21,5.51,35.84,35.84,0,0,1-4.82,7c-4.53,5.14-4.47,2.17.11-4.9,3.51-5.43,6.86-11.31,10.74-18.82,1.71-3.32,1.88-4.36,1-5.85-1.38-2.21-1.46-5.26-.17-6.07.53-.32,1-1.93.94-3.57,0-3.82,1.65-19.38,2.27-21,.74-1.93-.58-9.73-1.59-9.4-.49.17-1.41,1.8-2,3.63C110.25,196.75,100.17,211,96,214.13a30.08,30.08,0,0,0-5.87,6c-2.06,3.14-3.86,4-3.86,1.82,0-.68,3.61-5.43,8-10.55,10.44-12.14,20.12-28.58,20.12-34.19,0-2.29-.15-2.29-4.85.11a31.12,31.12,0,0,1-10.66,2.47c-5.83.44-7.2.25-9.48-1.36-3.76-2.65-6.45-3.33-7.58-1.92-2.81,3.5-5.62,57-4.09,77.6.6,8,1.49,16.22,2,18.28a61.29,61.29,0,0,1,.91,10.79c0,11.76,4.52,27.27,8.94,30.94,2.63,2.18,8.24,15.69,8.17,19.68A45.07,45.07,0,0,1,96.49,341c-2,8.26.6,18.93,8.52,35.37,2,4.12,3.83,8.23,4.11,9.14.75,2.42,2.35,2,3.48-.94ZM104,367.43a4.88,4.88,0,0,1-.49-3.39c.81-2.11,3.35.24,3.35,3.11S105.42,370,104,367.43ZM93.37,315.14c-.27-.44.57-2.23,1.87-4a73.73,73.73,0,0,0,5-8.35c4.52-8.82,6.22-11.58,7.38-12,2-.67,1.22,1.83-3.65,11.44C98.16,313.76,94.93,317.67,93.37,315.14Zm6-.14a1,1,0,0,1,1-.94c.54,0,.73.42.41.94s-.76.94-1,.94S99.38,315.52,99.38,315Zm-5.63-26.07a27,27,0,0,1,2.81-5.19c3.31-5.21,3.47-6.24.94-6.24-1,0-1.88-.42-1.88-.94s1.3-.84,2.89-.7c2.72.22,3.11-.19,6.52-6.8,2-3.86,3.94-7.87,4.31-8.9.65-1.79.69-1.78,1,.24.2,1.16-.55,4.54-1.66,7.5s-2.26,6.44-2.55,7.72a5.34,5.34,0,0,1-1.76,3.08c-.78.47-1,1.7-.71,3.36.39,2-.08,3.32-1.88,5.37s-2.4,2.37-2.43,1.09c0-2-1.3-2.11-3.17-.24C94.67,289.84,93.75,290.08,93.75,288.93Zm-5.62-39.79c0-.64,2.77-4.34,6.15-8.2a79.43,79.43,0,0,0,8-10.49c1.82-3.48,3.45-5.09,4.29-4.24,1.17,1.17-4.13,9.6-9,14.31-3,2.87-6,6.25-6.62,7.51C89.6,250.47,88.12,251.06,88.13,249.14Zm16.87,134a6.07,6.07,0,0,0-1.88-3.89,5.7,5.7,0,0,1-1.87-2.58,10.88,10.88,0,0,0-1.86-3.49c-1.69-2.38-4.26-10.09-5.31-16-.87-4.89-2.51-9.3-3.28-8.82-.44.27-.81,2.26-.81,4.42a63,63,0,0,1-1.88,11.31,65.46,65.46,0,0,0-1.86,9.62c0,2.08.27,2.2,3.63,1.66,4.2-.67,5.87.81,3,2.63s-2.3,2.61,2.14,2.61c3.15,0,4.5.52,6.08,2.35,2.56,2.93,3.93,3,3.93.14Zm-22.64-.2c.91-.8-1.2-2.29-3.26-2.29-1.91,0-2.3-.4-2.06-2.1.2-1.39.95-2.11,2.18-2.11,1.61,0,1.83-.53,1.58-3.75-.3-3.71-1.94-6.9-2.16-4.18-.06.75-.43-.3-.82-2.33a17,17,0,0,1,.11-6.56,48.36,48.36,0,0,0,.82-9.66c0-3.74.39-6.81.86-6.81,1.17,0,2.89,8.41,2.89,14.11,0,7.37,1.4,5.41,2.78-3.89,1.44-9.77.72-13.63-2.48-13.29-1.36.14-3.27-1.46-6.46-5.45-4.41-5.5-4.57-5.59-6-3.73-.88,1.16-3.28,2.26-6.09,2.78-2.6.49-5.2,1.62-5.93,2.59s-1.68,1.62-2.16,1.49-.87.69-.87,1.81a21.44,21.44,0,0,1-.85,4.92c-.47,1.59-1.52,6.52-2.34,11-1.3,7-1.32,8.51-.18,11.25a38.48,38.48,0,0,1,2,7.62c.64,4.26,1.59,5.48,2.77,3.55a1.8,1.8,0,0,1,2.07-.31,2.32,2.32,0,0,0,2.55-.83,7.09,7.09,0,0,1,3.46-2c3.26-.81,5.47,2.8,3.87,6.32-.92,2-.8,2.34,1,2.71,2,.4,12-.25,12.7-.83Zm-10.31-2.08c-1-4.62.66-24.25,2.16-25.94.43-.49.79,5.06.79,12.32,0,10.88-.25,13.31-1.41,13.75C72.82,381.26,72.12,381.2,72.05,380.83Zm-10.38-8.22c-.12-1-.22-6.89-.24-13.08,0-8.49-.31-11.19-1.2-11a1,1,0,0,1-1.17-1.07,1.36,1.36,0,0,1,1.64-1.17c1.28.1,1.69-.69,1.84-3.62.11-2.07,0-3.22-.31-2.58-.77,1.77-2.23.43-2.23-2,0-1.85.59-2.24,4-2.66a30.24,30.24,0,0,0,5.74-1.2c1.62-.66,1.7-.35,1.06,4.35-.37,2.79-1.09,5.58-1.6,6.2s-.66,2.74-.35,4.69.15,4.18-.37,5c-.83,1.24-.94,1.24-1,0-.15-1.7-1.22,2.8-2.78,11.71C63.45,372.83,62,375.92,61.67,372.61Zm4-7.53c0-1.09.27-1.32.57-.57a1.9,1.9,0,0,1-.08,1.8C65.88,366.62,65.66,366.07,65.7,365.08ZM45,370.74c0-6.22.2-7,1.64-6.8s1.74-.77,2.3-6.75c1.41-15,1.78-26.75.8-25.31a10.59,10.59,0,0,0-1,4.71,10.94,10.94,0,0,1-1.27,5.15c-1.86,2.73-2.42,5.45-3.44,16.58-.51,5.52-1.37,11-1.92,12.21a5.73,5.73,0,0,0,0,4.73C43.86,379.87,45,378.09,45,370.74Zm4.69,5.8c0-3.76-1.3-9.87-2-9.43-.95.58-1.11,9.16-.19,10.08s2.19.7,2.19-.65ZM8.25,368.25a6.25,6.25,0,0,0,1.13-3.76,11.36,11.36,0,0,1,.84-4.27c1.23-2.37,5.82-17.3,5.44-17.69-.19-.18-1.28,1.88-2.43,4.59l-3.32,7.73A39.14,39.14,0,0,0,8,360.7c-.36,1.66-1,3.27-1.53,3.56-1.06.66-1.16,5.12-.11,5.12A3.74,3.74,0,0,0,8.25,368.25Zm5.78-.69a11.49,11.49,0,0,0,1-4.5,7,7,0,0,1,.77-3.58c1.1-1.27,3.29-10.74,2.63-11.39-.3-.3-.8.25-1.12,1.23s-.9,2.62-1.29,3.65a103.85,103.85,0,0,0-4.5,13.83c-.52,3,1.09,3.47,2.54.76Zm22.9.33a16.44,16.44,0,0,0,.58-4.45,96.08,96.08,0,0,1,1.8-11.88c2.34-11.58,3.56-29.06,2-29.06-.6,0-1.34.74-1.63,1.64s-1.41,3.54-2.48,5.86c-3.88,8.45-7.18,18.12-7.22,21.18a15,15,0,0,1-1.65,5.16c-1.48,2.89-1.66,3-1.94,1.08s2.41-12.35,4.62-17.91a40.37,40.37,0,0,0,1.45-7.69c.31-3,1-5.4,1.48-5.29s1.51-1.5,2.23-3.56,1.95-5.08,2.72-6.71c1.57-3.35,1.8-5.95.51-5.95-1.49,0-4.79,5.38-4.21,6.88A2,2,0,0,1,34,319.57c-1.71.91-5.85,10-5.85,12.87a20.86,20.86,0,0,1-1.81,5.3c-1,2.19-2.43,5.88-3.19,8.2s-2.22,6.33-3.23,8.9a50,50,0,0,0-2.52,9.61l-.67,4.92h9.83c8.1,0,9.93-.26,10.4-1.48ZM20.62,344c0-1-.42-1.61-.93-1.29a3.17,3.17,0,0,0-.94,2.45c0,1,.42,1.61.94,1.3A3.25,3.25,0,0,0,20.62,344ZM22,340.38a1.08,1.08,0,0,0-.41-1.46c-.53-.33-.95.06-.95.87C20.63,341.44,21.19,341.68,22,340.38Zm-3.25-6.45c0-1.37-.14-1.39-.93-.18-1.18,1.84-1.18,3.08,0,2.34A2.75,2.75,0,0,0,18.74,333.93Zm73.33.19c-.39-2.46-4-11.62-4.65-11.62-.27,0-1,.74-1.74,1.64-1.55,2-1.76,0-.25-2.41.82-1.32.67-2.39-.71-4.91L83,313.59l-.3,3.71c-.41,4.95.5,9.44,2.2,10.85a4,4,0,0,1,1.38,2.61c0,1.87,3.79,5.95,5.1,5.49.55-.19.87-1.15.72-2.13ZM20.6,328.59c0-.51-.41-.3-.91.47a5.67,5.67,0,0,0-.91,2.35c0,.51.41.3.91-.47A5.67,5.67,0,0,0,20.6,328.59Zm47.8-.4c1.27-2.37,1.25-6.35,0-7.14-.56-.35-.92-2.38-.81-4.51.31-5.92,0-8.1-1-8.1-.51,0-.94,1.39-.94,3.09,0,2.93-1.35,5.34-3,5.34-.41,0-.74-1.92-.74-4.27,0-2.61-.37-4.05-.94-3.69s-.94,1.65-.94,2.95A12.49,12.49,0,0,1,58.36,317c-1.58,2.69-1.57,2.85.18,4.13A7.06,7.06,0,0,0,62,322.5c1.81,0,3.12,2.46,1.76,3.31a2,2,0,0,0,.74,3.54c2.81.74,3,.7,4-1.16Zm12.22,1c0-1.2-2.75-3.3-3.43-2.62S78.6,330,79.8,330A.82.82,0,0,0,80.62,329.18Zm-57.75-7c.73-2.41,1.14-4.38.92-4.38-.49,0-2,3.92-2.82,7.31C20,329.19,21.43,327,22.87,322.19Zm57.74-3.67c0-2.92-.26-3.61-.92-2.58-1.2,1.85-1.2,6.56,0,6.56C80.2,322.5,80.62,320.71,80.61,318.52Zm1.86-7.14a10.66,10.66,0,0,0-1.38-3.88c-1.3-2.28-1.34-2.23-1.37,2.08,0,3.55.24,4.32,1.37,3.88A2.31,2.31,0,0,0,82.47,311.38Zm-27.16-.13a.94.94,0,1,0-.93.94A.94.94,0,0,0,55.31,311.25ZM75,308.67a6.83,6.83,0,0,0-.89-3c-.75-1.18-1-1.15-1.49.24-.74,1.92.07,4.42,1.42,4.42C74.56,310.31,75,309.57,75,308.67Zm-4-11.09c.22-3.61.2-3.64-1.29-1.56-1.8,2.51-4,2.76-4.2.46a20.27,20.27,0,0,0-.33-2.57c-.12-.52-.28-1.3-.36-1.75s-.95.19-1.93,1.41c-2.15,2.64-1.54,4,2.78,6.34s5.06,2,5.33-2.33ZM47.34,300a2,2,0,0,0-1.51-.94c-.52,0-.68.42-.36.94a2,2,0,0,0,1.52.94C47.5,300.94,47.66,300.52,47.34,300Zm29.54-7A65.47,65.47,0,0,1,75,283.74c0-1.82-1.19-6.17-3-10.81-1.26-3.31-2-1.7-.93,1.92.52,1.72,1.64,6.49,2.49,10.62s1.89,8.55,2.32,9.84,1,3.14,1.37,4.12.78,1.57,1,1.33S77.91,297,76.88,293Zm-34.71,2.79c-.65-.79-1.38-1.24-1.62-1-.65.65.67,2.43,1.81,2.43.62,0,.55-.54-.19-1.43Zm14.55-.23c1.05-.77,1.56-6.78.57-6.78-.35,0-1.38,1.27-2.3,2.81C52.92,295.07,54,297.54,56.72,295.53Zm-19.24-5.4c-.65-.78-1.38-1.23-1.61-1-.65.65.67,2.43,1.8,2.43.62,0,.55-.54-.19-1.43Zm11.27-2.32c0-.51-.19-.93-.41-.93s-.68.42-1,.93-.13.94.42.94A1,1,0,0,0,48.75,287.81Zm105.93-3.48c-1-1.59-1-1.59-.53,0a16,16,0,0,1,.61,2.82c.05.79.2.77.54-.05A3.74,3.74,0,0,0,154.68,284.33ZM45,284c0-1.06-.42-1.67-.94-1.35a2.47,2.47,0,0,0-.94,1.93c0,.74.43,1.35.94,1.35S45,285.07,45,284ZM60,284c0-.51-.42-.67-.94-.36a2.09,2.09,0,0,0-.94,1.52c0,.52.43.68.94.36A2,2,0,0,0,60,284ZM41.27,273.28a64.84,64.84,0,0,1,6-11.1c2.1-3,4.66-6.86,5.69-8.55A75,75,0,0,1,58.78,246c2.87-3.35,4.21-4.3,5-3.54s.45,1.76-1.18,3.75A122.47,122.47,0,0,0,54,258.75c-.41.77,1.64-1.13,4.55-4.22,4.82-5.12,5.4-5.48,6.51-4,2.82,3.79,3,.94.57-12-.58-3.09-1.37-8.06-1.77-11-.69-5.14-.63-5.41,1.21-5.16s1.94-.17,1.94-8.8c0-5,.35-9.41.78-9.84s2.11-.78,3.74-.78c3.55,0,4.87-3.09,1.69-3.92a3.91,3.91,0,0,1-2.49-2.28c-.85-2.67-4.6-2.27-5.92.64-.61,1.33-.88,2.78-.61,3.22s-.18,2.79-1,5.22c-1.25,3.69-1.3,4.8-.3,6.68,1.09,2,1,2.47-1.22,4.32-1.6,1.35-3.1,4.32-4.39,8.7-2.28,7.77-4.2,10.49-10,14.13-2.31,1.47-4.21,3.09-4.21,3.6s.62,4.48,1.38,8.8,1.16,8.22.88,8.67c-1,1.62-2,.75-2.67-2.23l-.64-3-1.24,2.81-1.24,2.81-1.05-2.64a17.55,17.55,0,0,1-1-5.44c0-1.86-.36-2.59-1.07-2.15s-.85,3.23-.33,9.67c.41,5,.85,11.11,1,13.69s.28,5.09.33,5.58C37.58,281.47,39.05,279,41.27,273.28ZM24.38,277A1.42,1.42,0,0,0,23,275.62c-1.47,0-1.86,1.11-.78,2.19S24.38,278.5,24.38,277Zm132.73-4.92c-1-1-1.72.61-1,2.3s.75,1.61,1.14,0a3,3,0,0,0-.15-2.27ZM32.87,264.06c-.7-.71-1,.25-1,3.25,0,5.53,1.31,6.86,1.7,1.71C33.74,266.84,33.42,264.61,32.87,264.06Zm118.36-4.61c-.39-5.06-2.71-11-4.3-11-.51,0-.63,1.12-.28,2.58s.95,4,1.35,5.86c.69,3.07,2.63,7.5,3.3,7.5.17,0,.13-2.22-.07-4.93Zm-82.71-1.93c-1.22-1.22-1.41,1-.33,3.73.62,1.51.74,1.45,1-.5A4.33,4.33,0,0,0,68.52,257.52Zm-40.4-21.19c0-2.14-1.28-3.83-2.91-3.83-2,0-2.14.37-.8,2.87C25.39,237.21,28.12,237.91,28.12,236.33Zm12.77-3.6a32,32,0,0,0,3.17-5.86,45.85,45.85,0,0,1,3.47-6.62c3.07-4.71,2.17-8.69-2.64-11.73-4.27-2.69-6.32-2.87-7-.63-.29.9-1.77,4.34-3.29,7.64-2.06,4.47-2.7,7.09-2.49,10.31.32,4.82,1.53,5.38,3.42,1.56,1.74-3.52,2.45-2.32,1,1.69-1,2.67-1,3.56,0,4.75C38.18,235.85,38.73,235.71,40.89,232.73ZM39.4,218.86c0-1.93,1.58-4.17,3-4.17,1.21,0,.84,1.24-1.12,3.75C39.54,220.63,39.42,220.66,39.4,218.86Zm33.71,13.82a6.65,6.65,0,0,0-.92-3c-.68-1.05-.91-.49-.93,2.16,0,2.15.36,3.34.93,3A2.74,2.74,0,0,0,73.11,232.68ZM134.79,229l10.57-.49,2.93-4.36a68.87,68.87,0,0,1,5.55-7.16c1.45-1.55,4.57-7,6.94-12.19s5.65-12,7.28-15.19l3-5.81-1.42-11.53c-1.39-11.4-1.37-12.71.62-38.94l.65-8.66-4.55-4.7c-5.14-5.29-6.75-5.63-15.39-3.26-5.81,1.58-18,1.16-27.66-1-3.09-.68-8.63-1.76-12.31-2.39-11-1.91-15,.53-6.7,4.12,3.69,1.6,6.26,3.87,6.33,5.58,0,.42-.91.1-2.06-.7a7.82,7.82,0,0,0-3.41-1.46,3.81,3.81,0,0,1-2.5-1.61c-1-1.36-1.41-1.41-2.7-.34-1,.86-2.84,1.08-5.63.7-3-.42-4.43-.2-5.26.81a4.25,4.25,0,0,1-2.67,1.43c-.94,0-.63.42.79,1,1.78.71,2.57.6,3.36-.48,1.77-2.43,8.83.11,14.69,5.29,3.88,3.44,5.05,7.45,2.33,8-1.37.28-1.57-.08-1.09-2s-.11-2.8-5.07-6.17c-3.11-2.11-6.73-3.84-8-3.84-3.34,0-3,1.52.51,2.22,1.59.32,4.39,2.07,6.22,3.9,5.94,5.94,1.67,5.11-6.13-1.19l-4-3.27-7.22.68c-9.77.92-17.25,4-13.08,5.39.82.27.44,1.5-1.25,4.07a21.78,21.78,0,0,0-3,7.69c-.71,5.36-2.06,6.76-6.5,6.76-2.22,0-3.46.37-3.11.94s1.79.94,3.26.94c3.19,0,11.27,3.29,11.27,4.59a2,2,0,0,1-.92,1.49c-.51.31.59,2.08,2.43,3.92,2.48,2.48,3.24,3.94,2.92,5.6-.23,1.24,0,2.49.43,2.78s.58,2.39.24,4.67c-.73,4.85.84,5.71,2,1.09.85-3.48.9-2.85-.93-11.49-1.91-9-1.8-12.85.54-17.66s5.55-7,11.28-7.73c6.64-.88,14.26,3.39,11.31,6.33-.66.67-2,.59-4.31-.24-2.79-1-3.75-1-5.84.13-4.26,2.28-7,6.82-7.6,12.54-.3,2.86-1.11,5.69-1.81,6.27-2,1.68-1.5,2.71,1.37,2.71a7.14,7.14,0,0,1,4.92,2.43c3.57,3.82,6.85,5.07,13.36,5.07,9.62,0,15.88-3.82,17.22-10.51a7.41,7.41,0,0,1,1.81-3.65c1.48-1.23,1.76-5.53.35-5.53-.51,0-.94,1-.94,2.23,0,2.19-2.37,5.08-3.36,4.09-.28-.28-.09-3.54.42-7.24.73-5.26.65-7.69-.39-11.11-1.67-5.49-1.67-5.79,0-5.79,2.13,0,1.69-2.67-.93-5.79-2.47-2.93-3.22-6.7-1.18-5.85s6.47,8.68,8.91,15.7c2,5.63,2.26,7.83,1.83,13.52l-.51,6.8h8.29v-7.42c0-8.78.56-10.93,2.45-9.36,1.57,1.3,1.83,15.91.33,18.72-.72,1.34-2,1.81-4.92,1.82-5.33,0-6.52,1-6.14,4.78.3,3.07.2,3.18-3,3.18h-3.28l.09,4.69c0,2.57.62,9.54,1.27,15.46a172.68,172.68,0,0,1,.67,23.58c-.28,7-.23,13.07.12,13.42s1.7.36,3,0A115.06,115.06,0,0,1,134.79,229Zm-3.51-10.89c-4.51-1.55-5.55-6-3.43-14.75A125.39,125.39,0,0,0,130,185.68q.62-11.37,1.64-11c1.31.45,1.19,8.91-.28,19.87-2.63,19.61-2.57,20.11,2.45,20.14,2.32,0,4.94-4,5-7.67a40.73,40.73,0,0,1,1.43-7.31,111.66,111.66,0,0,0,2.29-15.25c.47-5.55,1.12-10.5,1.43-11s2.55-.94,5-.94c7.27,0,8.62-.69,8.62-4.29,0-4-1.93-5.08-9.29-5.08h-5.67l.09-15.21.08-15.21-3-2.52c-3.5-2.92-3.16-4.42.86-3.83,4.81.71,5.19,2,5.7,18.87l.47,15.56,5.9.28c5.32.25,6,.51,6.8,2.64,1.14,3,1.13,8.85,0,10.67-.62,1-2.7,1.46-6.79,1.56l-5.89.15-1.48,11.57c-1.77,13.74-2.29,16.36-4.79,23.76-1.67,5-3.8,8.07-5.39,7.91a39.45,39.45,0,0,1-3.78-1.17Zm3.13-17.06c.33-2.06,1.08-8.91,1.67-15.23,1.32-14.05,3-15.41,2.37-1.88-.55,11.26-1.75,18.16-3.43,19.74-1,.91-1.09.4-.61-2.63Zm-8.33-30.49c-.93-1.5.47-2.64,4.11-3.37,2.87-.58,3.08-.46,2.78,1.62-.24,1.75-1,2.31-3.27,2.53C128.07,171.54,126.44,171.19,126.08,170.6Zm18.8-1.66c-1.23-1.23-.21-1.9,3.83-2.5,2.68-.4,4.71-.27,5.32.34s.82,1.16.59,1.36c-.71.63-9.21,1.33-9.74.8Zm-6.41-9.26c-.28-.45-.25-4.4.07-8.77.43-5.89.75-7.22,1.22-5.13,1.46,6.39.49,16.78-1.29,13.9Zm-6.64-19.13a66.88,66.88,0,0,1-1-7.66c-.46-5.06-.31-6.33.74-6.33s1.44,1.86,1.81,6.8C133.84,139.53,132.89,143.9,131.83,140.55ZM75,130.78c0-.94.94-1.4,2.81-1.4,3,0,3.78,1.3,1.33,2.24S75,132.25,75,130.78Zm47-4.56c-2.53-4.1-2.48-4.34.86-4.34,2.66,0,2.81.2,2.81,3.74C125.62,130.2,124.53,130.38,122,126.22ZM50.62,223.37c0-2.5-1.45-2.83-2.12-.48-.26.9-.79,2.42-1.19,3.37-.64,1.57-.52,1.62,1.3.48A4.49,4.49,0,0,0,50.62,223.37Zm21.78-7.51c.23-4.25.15-7.74-.18-7.74-1.83,0-2.84,2.89-2.84,8.08C69.38,227.91,71.76,227.64,72.4,215.86Zm-16.15-.09c0-4.51-.37-5.79-2.09-7.27q-2.08-1.77-.92-.25c.65.83,1.27,4.1,1.39,7.26C54.9,222.83,56.25,223.05,56.25,215.77Zm115.12-4.87c1.48-2.38.58-4.26-1.3-2.71-1.38,1.15-1.84,4.62-.61,4.62.39,0,1.25-.86,1.91-1.91ZM37.5,205.26c0-.84-.34-.83-1.41.05a4,4,0,0,0-1.4,2.53c0,1.16.2,1.16,1.4-.05a4.63,4.63,0,0,0,1.41-2.53ZM171.64,199c1.1-2.44,2.64-5.83,3.43-7.53s1.1-3.38.71-3.75-.9-.17-1.12.45A36,36,0,0,1,171,193.3c-2.16,2.72-3.21,5-3.22,7.09,0,4.33,1.49,3.77,3.82-1.41Zm-145.37.69c1.36-1.18,1.86-2.23,1.31-2.78-1.18-1.17-2.8,0-3.61,2.56S23.49,202.08,26.27,199.67Zm31.94.28c1.5-.88,2.73-1.91,2.73-2.27a4.17,4.17,0,0,1,1.17-1.91c3.55-3.77,3.74-4.36,2.44-7.3-.76-1.72-2-2.85-3-2.85s-2.75-1.05-4-2.34c-2.7-2.92-4.18-2.95-6.82-.13s-3.42,13-.9,13.51c1,.22,2.11-.8,3.16-3,1.53-3.22,3.28-5.18,3.21-3.61a11.82,11.82,0,0,1-1.38,3.1c-1.91,3.35-1.76,8.44.25,8.44A17.63,17.63,0,0,0,58.21,200Zm-12.27.28c0-1.27-6.79-4.35-8.44-3.82-2.79.88-1.33,2.34,2.34,2.34,1.75,0,3.44.42,3.75.94C44.16,200.6,45.94,201,45.94,200.23Zm-3.83-10.39c0-.51-.36-.3-.86.47a5.8,5.8,0,0,0-.86,2.81C40.45,194.61,42,191.62,42.11,189.84Zm137.42,2.35c.32-.52.13-.94-.41-.94a1,1,0,0,0-1,.94c0,.51.19.93.42.93S179.21,192.7,179.53,192.19ZM34.69,186.48c0-2.28-2.19-2-2.65.39a1.18,1.18,0,0,0,1.17,1.57c.87,0,1.48-.8,1.48-2Zm-2.28-8.26c-1.1-1.76-2.14-1.16-3.71,2.16-2.21,4.66-1.87,5.1,1.42,1.81C31.73,180.58,32.76,178.79,32.41,178.22Zm14.47,3.6a.91.91,0,0,0-.94-.88c-.52,0-.94.66-.94,1.46s.42,1.2.94.88A2,2,0,0,0,46.88,181.82Zm14.31-2.71c-4.66-4.36-9.4-6.51-11.48-5.22-1.78,1.1-1,2.36,1.49,2.36s9,3.1,12,5.86a6.91,6.91,0,0,0,2.35,1.6C65.86,183.69,63.89,181.62,61.19,179.11Zm-36.81.83c0-1-.43-1.82-.94-1.82s-.94,1.08-.94,2.4.41,2.15.94,1.82A3.12,3.12,0,0,0,24.38,179.94Zm47.59-2c1.35-3.55,1.2-3.72-5.17-6-2.71-.95-4.92-2.27-4.92-2.95,0-1.44-1.52-1.62-2.35-.27-.32.52.07,1.19.88,1.5A3,3,0,0,1,61.88,173c0,2.46,1.42,3.71,4.21,3.71,1.23,0,2,.72,2.18,2.11C68.7,181.89,70.66,181.41,72,177.93Zm107.55-.35a11,11,0,0,0,2.54-5.76c.4-4.64,3.65-5.88,6.9-2.63,1.9,1.89,2.29,2,2.29.68a3.89,3.89,0,0,0-1.85-2.76c-1.64-1-1.87-2.39-2.11-12.65-.29-12.88-1.68-15.22-2.93-4.93-1,8.66-1.75,10.26-2.48,5.63-.61-3.81-1.52-3.19-2.07,1.4-.15,1.29-.85,2.35-1.55,2.35-1,0-1.31-3.11-1.48-15-.21-15.35-.69-18.29-3-18.29-1.57,0-1.73,1.51-.26,2.42.7.43.88,2.74.53,6.85-.3,3.41-1,11.55-1.57,18.07-1.15,13.11-.25,17.81,3.65,19,2.1.67,2.62,2.79,1,3.83a1.81,1.81,0,0,1-2.07-.41c-1.56-1.57-2.54-1.26-2.54.78,0,1.67,2.17,3.7,4,3.77.41,0,1.76-1.06,3-2.39ZM28.65,175.84c2.7-2,.57-3.81-2.2-1.87-1.14.8-2.07,1.85-2.07,2.33,0,1.31,2.19,1.08,4.27-.46Zm39.41-9.11c.36-.59,0-1.59-.89-2.21a3.65,3.65,0,0,1-1.55-2.28c0-1.77-2.3-.59-2.68,1.37a3.37,3.37,0,0,0,1.36,3C66.37,168.09,67.19,168.13,68.06,166.73ZM28.2,157.2c-1.21-1.21-1.4,1.05-.32,3.74.61,1.51.74,1.45,1-.5a4.36,4.36,0,0,0-.7-3.24ZM27.26,142a83.69,83.69,0,0,1-1-12A54,54,0,0,0,25,118.87a96.18,96.18,0,0,1-2-12.7c-.38-4.26-1.11-8-1.63-8.33s-.73,1-.33,4c.34,2.52,1,8.58,1.38,13.48,1.37,15.8,3.72,35.17,4.49,37.06C28.17,155.49,28.41,148.64,27.26,142ZM118.77,148c-.3-.75-.53-.53-.57.57s.18,1.54.49,1.23A1.9,1.9,0,0,0,118.77,148Zm63.11-5.86c0-3.32-.43-6.3-.94-6.62s-.94,1.86-.94,6c0,3.78.4,6.61.94,6.61S181.88,145.49,181.88,142.09ZM60,129.26c0-.51-.42-.67-.94-.35a2.06,2.06,0,0,0-.94,1.51c0,.52.43.68.94.36A2,2,0,0,0,60,129.26Zm121.88-.82a1,1,0,0,0-1-.94c-.54,0-.73.42-.41.94s.76.94,1,.94S181.88,129,181.88,128.44Zm-118.13-3c0-1.24-2.13-.46-2.6.94-.23.68.2.89,1.12.54S63.75,126,63.75,125.45Zm8-.76c.32-.52,2.64-.94,5.16-.94,4.85,0,7-1.33,3.72-2.35-2.41-.77-9.35.34-9.35,1.49,0,.48-.63.86-1.41.86s-1.4.42-1.4.94.61.93,1.35.93A2.5,2.5,0,0,0,71.72,124.69Zm.94-5.63c.31-.51-.06-.94-.83-.94a2.58,2.58,0,0,0-2,.94c-.31.52.06.94.83.94A2.55,2.55,0,0,0,72.66,119.06Zm8.43-1.87c.32-.52,3.06-.94,6.1-.94s5.77.42,6.09.94,1.82.93,3.34.93,2.76-.42,2.76-.93-.82-.94-1.82-.94a3.08,3.08,0,0,1-2.4-.94c-.77-1.24-8.54-1.19-14.72.1s-8,2.71-3.34,2.71C79,118.12,80.78,117.7,81.09,117.19Zm70.07-5.47c1.61-1.62-2.7-2.78-7.18-1.94a20.6,20.6,0,0,1-5.7.37c-4.78-.89-21.09-1.4-21.09-.66,0,.46,3.06,1.37,6.79,2s7.22,1.35,7.74,1.55C133.75,113.82,150.18,112.69,151.16,111.72Zm-38.77-5.94c3.41-.61,6.34-1.2,6.51-1.32s-1-2-2.58-4.2c-3.45-4.77-3.92-11-1.14-15.23l1.73-2.62.53,7c.33,4.32,1.14,7.88,2.08,9.19,1.51,2.09,1.54,2,1.25-2.55-.26-4-.07-4.65,1.34-4.41,1.8.3,2.28-2.11.63-3.13s-.14-5,2.69-7.59c2.38-2.17,2.4-2.28.43-1.73-2.51.69-2.68-.41-.67-4.3,1.72-3.33,1.16-4.62-2-4.62-2,0-2.25-.31-1.69-2.11a20.36,20.36,0,0,1,2.4-4.59c3.89-5.52,1.17-6.16-3.74-.89-4.08,4.38-11.37,8.94-18,11.29S88.36,82.09,87.57,85.68s2.12,6.2,7.18,6.2c4.67,0,7.91-1.53,9.19-4.33.56-1.23,1.38-2.24,1.81-2.24s1.75-2.11,2.91-4.69c2.14-4.73,6.87-10.31,8.74-10.31.56,0,.31.78-.55,1.73s-2.83,5.27-4.38,9.61c-5.22,14.58-5.75,15.85-6.61,15.85-.47,0-.86-1-.86-2.34s-.42-2.35-.94-2.35-.94,1-.94,2.29a3.94,3.94,0,0,0,.94,2.87c1.67,1,1,4.37-.94,4.88a2.53,2.53,0,0,0-1.87,2.26C101.25,107.23,103.44,107.36,112.39,105.78ZM95.62,86.31A3.09,3.09,0,0,1,96.48,84c1-.64,1.86,1.35,1.25,3C97.06,88.77,95.62,88.33,95.62,86.31ZM90,86.56c0-1.78,1-4.06,2-4.06,1.22,0,1,1.27-.54,3.34C90.68,86.84,90.05,87.16,90,86.56Zm11.22-.17c0-1.81,2.12-6.7,2.9-6.7,1.15,0,1.07,3.45-.12,5.68C103.05,87.21,101.25,87.86,101.25,86.39Zm37.27,17.91c.27-.82-.84-1.17-3.68-1.15-3.82,0-4,.12-2.19,1.45C134.78,106.2,138,106,138.52,104.3Zm-9.14,0c0-.4-1.69-.8-3.76-.89s-3.74.25-3.74.74,1.68.89,3.74.89S129.38,104.67,129.38,104.26Zm-29.3-4.61c1.4-3,1.5-5,.27-5s-2.85,3.17-2.85,5.56C97.5,102.93,98.68,102.66,100.08,99.65ZM125.24,94c-1-1-1.73.6-1,2.3s.75,1.6,1.13,0a3,3,0,0,0-.14-2.26Zm4.14-.71c0-.77-.43-1.4-.94-1.4s-.94.63-.94,1.4.42,1.41.94,1.41S129.38,94.05,129.38,93.28ZM86,79.66a9.57,9.57,0,0,0,2.1-5c0-3.33.92-5.33,2.45-5.33.77,0,1.31,1,1.31,2.34s.22,2.34.49,2.34a59.57,59.57,0,0,0,6.17-2.86c6.69-3.38,13.24-9.12,16.85-14.78,2.4-3.77,2.5-4.3,1.4-7.5-1.89-5.51-4.24-5.36-18.82,1.23-10.54,4.77-13.7,6-20.15,7.56a57.66,57.66,0,0,0-6.88,2c-.44.27.73,2.06,2.6,4,3.89,4,7.08,11.56,7.08,16.79,0,4.19,1,5.65,2.35,3.38A41.33,41.33,0,0,1,86,79.66Zm2.67-17.54c-1.11-1.1-.54-3.81.92-4.36,2.18-.84,2.27-.78,2.27,1.67C91.88,61.58,89.85,63.29,88.69,62.12Zm8.81-5.33c0-1.33.18-2.41.39-2.41a10,10,0,0,0,2-.6c1.27-.49,1.5-.09,1.25,2.1C100.68,59.48,97.5,60.28,97.5,56.79ZM217.07,78.57a7.06,7.06,0,0,1,3.29-4.36A10,10,0,0,0,224,70.56c.54-1.17,1.4-2.12,1.93-2.12s.94-1.58.91-3.52l0-3.51L225.51,65c-1.84,5.16-6.14,7.84-6.14,3.83a9.87,9.87,0,0,1,1.65-3.9,15,15,0,0,0,1.69-7.23c0-2.6.14-7.67.26-11.28.2-6,.33-6.41,1.59-4.75A11.37,11.37,0,0,1,226,47.29a13.3,13.3,0,0,0,.82,5.08c1.33,2.09,2.18-.39,2.11-6.17,0-4.07-.62-6-2.58-8.85-1.38-2-2.3-3.85-2-4.11.68-.68,2,1.12,5.47,7.75,3,5.62,3.06,6,2,10.62-1.53,6.62-1.44,11.2.22,11.2,5.58,0,9.48-9,5.58-12.91-1.41-1.41-1.38-1.59.38-2.38,3.31-1.48,3.55-9.87.46-16-1.76-3.5-5.71-7.13-7.74-7.13-.87,0-4.19-1.69-7.37-3.74-6.39-4.13-9.92-5.38-10.87-3.84s-8,1.23-11.17-.4a16.31,16.31,0,0,0-6.33-1.4c-2,0-3.64-.42-3.64-.94,0-1.26,8.07-1.2,10.45.08,1.05.56,2.15.76,2.45.46,1-1-2.72-3-7.66-4.28-2.62-.67-5-1.49-5.24-1.82-1.08-1.41-7.75-4.75-9.48-4.75a12.85,12.85,0,0,0-4.63,1.43c-2.71,1.4-2.77,1.59-2.77,8.81,0,5.76.32,7.49,1.44,7.92,1,.37,1.73-.23,2.33-1.78A6.81,6.81,0,0,1,186,16.31c3.16.79,3.08,2.25-.16,3-6.55,1.56-5.93,4.43.77,3.54,5.57-.74,6.26.8,1.28,2.87a14.31,14.31,0,0,1-7.34.85c-3.78-.52-4.18-.35-7,3.05-1.63,2-3,4.56-3,5.73,0,2.81,1.32,2.71,2.65-.21.58-1.29,1.47-2.35,2-2.35,1.65,0,1.9,1.58.54,3.38a10.88,10.88,0,0,0-1.38,5.36c-.05,6.05-3.32,10-4,4.69-.46-3.88-2.64-3.9-2.64,0,0,3.12,2.77,7.28,2.85,4.3,0-.71.67-.13,1.44,1.29,1.52,2.8,4.56,3.44,5.44,1.14.3-.8.12-3.46-.41-5.93C176,41.7,177,38.3,180.69,34.87c5-4.66,11.3-5.69,14-2.29,1,1.25,1.56,1.24,4.94-.12,4.75-1.89,6.59-1.93,6.59-.12a1.26,1.26,0,0,1-1.17,1.37c-.65,0-5.28,2-10.29,4.45l-9.12,4.5,0,4.45c0,2.45-.46,4.45-1,4.45s-1.43,1-2,2.3a8,8,0,0,1-4,3.41c-2.25.86-2.53,1.21-1.24,1.53.92.23,3.37-.47,5.45-1.55,4-2.11,5.53-1.9,5.53.78,0,1.32,3.36,3.84,5.11,3.84.18,0,.12-1.58-.13-3.51A6.88,6.88,0,0,1,195,52.27c3.38-4.29,6.55-2.75,3.27,1.58-1.78,2.35-1.84,8-.09,8,.71,0,1.55-1.3,1.87-2.89a17.43,17.43,0,0,1,2.46-5.53,10.69,10.69,0,0,0,1.88-5.15c0-1.87.42-2.42,1.63-2.19,2.63.51,2.42,3-.64,7.87-1.64,2.59-2.86,5.78-2.86,7.49,0,3.38-1.83,5.41-4.1,4.54-1.83-.7-2,.85-.28,2.29,1.24,1,4.45.37,9.71-2,2.27-1,7-9.29,8.79-15.44,2.27-7.69,3.67-3,1.87,6.25-.59,3.07-1.72,5-4.41,7.31-5.23,4.59-8.94,6.82-11.35,6.83-1.16,0-2.11.42-2.11.94,0,.91,2.52,1.33,5.93,1a16.82,16.82,0,0,0,4.92-2.07c3.76-2.22,4.32-.79.87,2.21-2.76,2.4-3,3.28-.7,3.18,2.48-.11,2.89,1.76.47,2.1-1.16.17-2.11.71-2.11,1.2,0,1.14,3.85,2.62,5.33,2C216,81.6,216.73,80.13,217.07,78.57ZM205.31,62.72c0-1.73,2.93-6.09,4.92-7.33,1.77-1.11,1.85-1,1.23,1.48C210.45,60.93,205.31,65.83,205.31,62.72Zm29.57-7.34a1.08,1.08,0,0,1,.42-1.46c.52-.33.95.06.95.87C236.25,56.44,235.69,56.68,234.88,55.38Zm-23-3.71a3.22,3.22,0,0,1,.93-2.45c.52-.32.94.26.94,1.29a3.2,3.2,0,0,1-.94,2.46C212.3,53.29,211.88,52.7,211.88,51.67Zm-21.39-4.08c.3-3.12,2.17-4.27,5.11-3.14,1.19.46,1.07,1-.76,3.31-3,3.76-4.73,3.69-4.35-.17Zm44.57-2.22c-.38-.37-.68-2.24-.68-4.15A13.16,13.16,0,0,0,232,34.31c-2.68-4-2.92-5.25-1-5.25s4.75,3.32,6.14,7.55c1.05,3.17,1,4.19-.11,6.6-.74,1.57-1.65,2.54-2,2.16Zm-37.25-4.8c0-1.3,4.34-3.07,7.55-3.07,2.57,0,3.69,1.19,2.06,2.2S197.81,41.41,197.81,40.57Zm22.5-9.63a.91.91,0,0,1,.88-.94,2,2,0,0,1,1.47.94c.31.51-.08.94-.89.94S220.31,31.45,220.31,30.94Zm-.23-5.4c-2.53-1.57-3.38-3-1.76-3,1.77,0,7.62,2.89,7.62,3.76C225.94,27.69,222.94,27.32,220.08,25.54Zm-22.5-4.05c-2.44-1.43-2-2.74.94-2.71,2.45,0,5.86,1.84,5.86,3.12C204.38,22.85,199.39,22.54,197.58,21.49Zm-21.33-5.78c0-2.48,2.37-6.26,4.55-7.25,1.62-.74,3.07-.7,5.41.15,3.95,1.43,3.61,3.09-.67,3.17s-7.42,1.22-7.42,2.76a2.42,2.42,0,0,1-.93,1.87C176.67,16.72,176.25,16.41,176.25,15.71ZM19.39,78.57c-.3-.74-.52-.52-.57.57s.18,1.54.5,1.23A1.9,1.9,0,0,0,19.39,78.57ZM131.58,75c2.24,0,10.3-10.45,9.89-12.83-.31-1.81.18-2.54.93-1.37.56.89,1,1,1.44.24s.2-1-.35-1c-1.34,0-1.26-3.1.11-4.48a1.47,1.47,0,0,1,2.27-.13c1.78,1.47,4.85-.88,6.82-5.23C155,45,156.35,39,155.52,37.43c-.38-.73-.94-2-1.23-2.74A23.06,23.06,0,0,0,153,31.88c-2.1-3.71-3-5.71-3-6.9,0-1.53-3.54-6.23-4.69-6.23-.44,0-.93.67-1.1,1.49-.24,1.17-.8,1-2.65-1.07l-2.34-2.56,2.81.66,2.81.66-2.34-2.37c-3.39-3.42-12.71-5.6-20.54-4.81-6.4.65-11.34,2.24-11.34,3.64,0,.45.74.49,1.65.09,2.68-1.18,8.67-1.62,8.67-.64,0,.49-2.31,1.63-5.12,2.51-7.56,2.38-15.51,8.68-20.77,16.46-4,6-4.34,6.57-3.28,6.57.51,0,3-2.79,5.59-6.19,5-6.58,8.75-9.62,15.68-12.6,4.76-2,7-2.32,7-.9,0,.51-.59.93-1.32.93-3.48,0-12.5,6.3-14.54,10.15-1,2-1,2.1.57,1.26a16,16,0,0,0,3.5-2.89c2.94-3.24,10-6.15,9.87-4.06,0,.38-2.24,2.28-4.92,4.22-7.1,5.12-17.77,15.5-17.09,16.61.39.61,1.81.43,4.06-.53,8.93-3.79,10.68-4.3,13.08-3.81l6.31,1.29c2.57.52,3.85,1.32,4.08,2.54.38,1.94-1.51,8.72-3,10.64-.5.66-.7,1.4-.44,1.66.87.87,5.07-6.6,6.75-12,1.93-6.22,3.7-8.39,6.53-8,1.84.27,2,.76,1.66,6.62-.22,4.18,0,6.33.7,6.33s1-.64,1-1.41.46-1.41,1-1.41.88,1.13.63,2.82c-.28,1.91,0,2.81.83,2.81.69,0,1.25.18,1.25.41,0,.58-4.86,9.35-8.83,15.94-1.85,3.06-3.35,6.23-3.33,7,0,1.21.19,1.18,1-.18A3.17,3.17,0,0,1,131.58,75Zm16.54-35.11c0-4.88-.49-9.95-1.09-11.28-.85-1.84-.85-2.67,0-3.51s1.09-.73,1.09.49c0,.88.43,1.6.94,1.6s.94,1,.94,2.29a3.9,3.9,0,0,0,1,2.9c.63.39.89,3.6.71,8.49-.26,6.75-.54,7.87-1.94,7.88s-1.65-1-1.65-8.86Zm-5.62-.4a63.78,63.78,0,0,0-.59-9.37c-.45-2.27-.25-2.93.86-2.93,1.95,0,2.9,6,2.07,13.16C144,48,142.5,47.42,142.5,39.49ZM18.29,61.22c-1-11.52-2.35-14-1.75-3.1.52,9.36.82,11.26,1.82,11.26C18.7,69.38,18.67,65.7,18.29,61.22Zm209.45-2.54c.65-.78.74-1.55.22-1.87s-1.09.3-1.36,1.33c-.58,2.2-.34,2.32,1.14.54Zm-98-5.48c1.8-3.88,3.38-11,2.43-11-.71,0-1.53,1.91-3.63,8.5C126.66,56.67,127.42,58.26,129.77,53.2ZM90,49.22c1.27-1.53,1-1.72-1.33-.84-.82.31-1.48.95-1.48,1.41C87.19,51.08,88.71,50.78,90,49.22Zm93.16-5.09A8.62,8.62,0,0,1,187,37.9c3.81-2.91,4.14-4.15,1.11-4.15-4,0-8.15,5.36-8.15,10.59,0,5.78,2.23,5.63,3.16-.21ZM97.5,40.31c0-.51-.19-.93-.41-.93s-.68.42-1,.93-.13.94.42.94A1,1,0,0,0,97.5,40.31ZM166.88,38c0-1.81-.43-3.28-.94-3.28S165,36.16,165,38s.42,3.28.94,3.28S166.88,39.77,166.88,38Zm-4.46-2.81a3.81,3.81,0,0,0-.83-3.39c-1-.86-1.28-.42-1.28,2.33C160.31,38,161.74,38.69,162.42,35.16Zm9-7.22c1.61-1.62,1.41-5.44-.29-5.44a1.33,1.33,0,0,0-1.42,1.17A16.72,16.72,0,0,1,169.1,27C168.48,29.25,169.59,29.73,171.38,27.94ZM165,26.66c0-.8-.43-1.19-.95-.87a1.08,1.08,0,0,0-.42,1.46C164.44,28.55,165,28.31,165,26.66Zm-1.88-7.41c0-1.8-3-3.39-4.62-2.42-1.06.66.65,2.11,4.39,3.7.13,0,.23-.52.23-1.28Zm7.5-2.84c0-3.22-1.57-3.73-2.15-.7a7.05,7.05,0,0,0,0,3.28c.81,1.32,2.19-.31,2.19-2.58ZM165,11.25a.94.94,0,1,0-.94.94A.94.94,0,0,0,165,11.25Zm-11.25-.94a.94.94,0,1,0-.94.94A.94.94,0,0,0,153.75,10.31Zm-7.32,489.62A2.6,2.6,0,0,1,148.3,498c1.16-.22,1.42.19,1,1.63-.62,2.35-3.37,2.63-2.92.3Zm30.93-116.26c.17-.9,2.51-2.82,5.19-4.26,3.76-2,6.32-2.66,11.2-2.81,5.9-.18,6.36-.35,6.87-2.54.64-2.74,3.43-3.47,6-1.57,2.27,1.65,1.42,4.1-1.83,5.34a32.85,32.85,0,0,1-8.41.92c-5.15,0-6.77.46-11.59,3.28C178.54,385.71,176.91,386.07,177.36,383.67Zm-7.52-22.46c-.59-4.53-1.26-9.93-1.49-12s-1.29-8.18-2.36-13.6-2.6-13.85-3.4-18.74a86.79,86.79,0,0,0-2.8-12.45c-1.56-4.06-1.7-7.11-.44-9.11,1.5-2.38,2.82.09,4.78,9,1,4.58,2.28,10,2.82,12.09,1.94,7.51,4,20.75,4,26,0,3,.32,5.39.67,5.39.72,0,1.65,7.35,1.94,15.47.16,4.43-.11,5.68-1.25,5.9s-1.66-1.39-2.51-8Zm-46.09,4.94a2.47,2.47,0,0,1,.94-1.93c.51-.32.93.29.93,1.35s-.42,1.93-.93,1.93S123.75,366.89,123.75,366.15Zm70.17-1c-.33-.52-.85-3.68-1.15-7l-.55-6.09,1.43,3.75c1.34,3.54,1.58,11.39.27,9.38Zm-29.64-4.22c-.5-1.29-1.22-6.51-1.6-11.59A75.94,75.94,0,0,0,161,337.16a66.34,66.34,0,0,1-1.75-9.5c-.44-3.61-1.05-8.57-1.37-11-.64-4.84.81-6.26,1.9-1.87,1.21,4.84,3.64,20.41,5.1,32.57.43,3.61,1.08,7.63,1.43,8.93a8.91,8.91,0,0,1-.25,4.69l-.89,2.32Zm-40.53-7c0-3.28.35-5.05.94-4.69s.93,2.43.93,4.69-.42,4.37-.93,4.68S123.75,357.18,123.75,353.91Zm77.9,3.12c-.49-1.2-2.2-6.62-3.81-12s-4-13-5.34-16.88-2.63-8.08-2.9-9.37a14,14,0,0,0-1.77-4.19c-1.61-2.36-1.61-3.31,0-3.31,1.06,0,5.26,7.11,5.26,8.91a33.43,33.43,0,0,0,1.85,4.46c2.56,5.51,9.2,26.72,9.56,30.6s-1.6,5-2.89,1.81Zm-10.4-8c0-1.62-.42-3.2-.94-3.52a3.94,3.94,0,0,1-.93-2.87c0-1.26.42-2.29.93-2.29s.94,1,.94,2.29a16.7,16.7,0,0,0,1,4.84c.67,1.76.67,2.85,0,3.53S191.25,351,191.25,349Zm-62.81-14.25c0-7.7.38-14.24.85-14.53,1.33-.82,2,5.63,1.54,15.41-.21,4.9-.42,9.86-.45,11s-.49,2.11-1,2.11S128.44,343.46,128.44,334.74Zm13.68,3c-1.44-18-1.68-27.89-.64-26.89s1.54,5.88,2.58,24.55C144.69,346.82,143,348.85,142.12,337.73Zm-18.37-10.6c0-10.42.33-15.79.94-15.41s.93,6.73.93,16c0,9.65-.35,15.41-.93,15.41S123.75,337.17,123.75,327.13Zm13.71,12.13a78.9,78.9,0,0,1-.58-10.62c0-4.23-.42-12.09-.93-17.46s-1.13-12.94-1.39-16.8-.9-10.83-1.43-15.47c-1.58-13.72-2.25-38-1-38,.57,0,1,1.5,1,3.33a89.57,89.57,0,0,0,.88,9.61c.49,3.45,1.16,9.19,1.5,12.75s.92,6,1.32,5.31c.54-.86.88-.76,1.32.4.92,2.4.71,5.92-.39,6.6-.67.41-.82,5.42-.45,15.29,1.42,38.68,1.66,48,1.21,48-.26,0-.74-1.32-1.06-2.93ZM226,321c-4.19-4.55-4.51-7-.41-3.13,2.21,2.06,5.63,7.42,4.74,7.42A36.72,36.72,0,0,1,226,321Zm-96.85-7.9a23.1,23.1,0,0,1-.57-5.62c.09-3.15.13-3.12.94.94.94,4.74.65,8.38-.37,4.68Zm43.93-11.71c-.4-1-1.07-2.72-1.5-3.75a31.24,31.24,0,0,1-1.33-4.43c-.44-2-.26-2.44.86-2,.78.3,1.42,1.68,1.42,3.07a5.94,5.94,0,0,0,1,3.54,4.21,4.21,0,0,1,.63,3.23c-.36,2.09-.42,2.11-1.1.35Zm3.2-4.28c0-1.06.42-1.67.94-1.35a2.5,2.5,0,0,1,.93,1.93c0,.74-.42,1.35-.93,1.35S176.25,298.19,176.25,297.13Zm-37.35-9.32c0-1.29.21-1.81.47-1.17a3.61,3.61,0,0,1,0,2.34C139.11,289.63,138.9,289.1,138.9,287.81Zm87-2.71c-6.35-7.57-15.29-14-13.7-9.87,1.17,3.06-1.82.65-3.94-3.18-3.79-6.79-.93-7.66,7.14-2.16,9.8,6.68,15.51,13.38,15,17.62C230.16,290.11,230.11,290.08,225.94,285.1Zm-23.44-31c0-1,.42-1.87.94-1.87s.94.84.94,1.87-.43,1.88-.94,1.88S202.5,255.09,202.5,254.06Zm-16.47-9c.35-3.55.86-8.88,1.14-11.85s.88-5.39,1.35-5.39c1.21,0,1.06,13.34-.2,18.35C186.61,253,185.31,252.35,186,245.05Zm-4.15-6.87c0-1.06.42-1.93.93-1.93s.94.61.94,1.35a2.47,2.47,0,0,1-.94,1.93C182.3,239.85,181.88,239.24,181.88,238.18Zm.62-3.49c-1-1-.73-5,.31-5,.52,0,.94,1.26.94,2.81C183.75,235.41,183.56,235.75,182.5,234.69Zm7.5-18.75c-1-1-.73-4.06.31-4.06.52,0,.94,1.05.94,2.34C191.25,216.67,191,217,190,215.94Z" transform="translate(-0.14 -0.01)"/></svg>