<svg id="svg3414" xmlns="http://www.w3.org/2000/svg" viewBox="0 0 278.28 611.81"><defs><style>.cls-1{fill:#fff;}</style></defs><path id="path3424" class="cls-1" d="M172.81,610c-4.32-1-8.37-2.2-9-2.73s-1.68-3.17-2.32-5.89c-2.36-10-5.13-12.44-15.75-14a45.78,45.78,0,0,0-20.84,2.38c-15,5.35-19.42,5.06-25.05-1.63-2.2-2.61-2.36-3.36-1.77-8.08.9-7.25,3.69-10.2,15-15.93,15-7.59,21.74-15.85,20-24.51a196.36,196.36,0,0,0-5.47-22c-3.95-12.83-9.2-35.64-10.25-44.58-1.61-13.55-2.28-35.8-1.2-39.66s-.34-15.22-3.1-25.09a126.91,126.91,0,0,1-2.57-13.44l-1.14-8.28-4.43-3.18c-3.92-2.82-4.64-3.91-6.33-9.6-1.85-6.2-2.12-6.55-8-10.48a50.66,50.66,0,0,1-8.34-6.69C77.83,351.36,77,338.29,80,322.5L81,317l-3.42-3.14c-1.89-1.73-3.43-3.58-3.43-4.12a1,1,0,0,0-.94-1c-.51,0-.94,1.48-.94,3.29,0,5.17-3.28,11-8.06,14.4l-4.26,3,.62,10.07c.34,5.53,1.24,14.5,2,19.92s1.75,17,2.19,25.81,1.26,24.61,1.81,35.19S68,451.5,68.6,466s1.38,35.15,1.84,46,1.08,27.31,1.39,36.6,1,18.37,1.43,20.18c1.13,4.29,1.13,13.14,0,13.14-2.19,0-3.09-4.5-4.71-23.47-.5-5.93-1.37-15.64-1.92-21.58s-1.4-16.07-1.89-22.52-1.33-17.65-1.88-24.87L61,464.55c-.49-6.46-1.31-18.49-1.82-26.75s-1.37-20.72-1.92-27.69-1.18-15.83-1.41-19.7c-.42-7.27-1.29-15.66-3.91-37.61-1.33-11.21-1.75-12.85-3.46-13.61-1.53-.68-2.18-2.29-3-7.44A44.68,44.68,0,0,0,42.23,321c-1.57-3.1-2.2-6.14-2.38-11.43-.13-4-.52-7.67-.87-8.23a30.83,30.83,0,0,0-5.49-4.16,41.52,41.52,0,0,1-6.54-5c-.92-1-4.47-3.31-7.89-5.05-6.87-3.49-10.6-7.71-15.27-17.32-4.38-9-4.58-12.48-1.11-19.51a32.58,32.58,0,0,1,8.8-11c3.23-2.78,6.94-6.13,8.23-7.43s8-7.63,14.87-14.07c15.17-14.18,20.79-22,20.79-29A24.57,24.57,0,0,0,54,180.8c-2.2-5.26-1.71-8.45,2.69-17.76,5.34-11.3,5.45-11.73,4.44-17.1-.8-4.3-.64-5,2.58-10.67,2-3.61,4.58-6.71,6.25-7.64a6.4,6.4,0,0,0,3.28-4.09c.33-1.76,3.33-5,9.86-10.56,10.19-8.72,14.91-11.62,19-11.64,2.7,0,9.12-2,10.27-3.1.93-.92,8.24-.79,9.29.18a9.35,9.35,0,0,0,3.31,1.38l2.42.57-.69-5.12c-1-7.27-.39-8.71,4.17-10a21.78,21.78,0,0,0,5.11-2c1.66-1.27.61-7.35-2.22-12.81-1.2-2.33-2.91-5.81-3.79-7.75-1.56-3.42-4.25-4.67-5.54-2.58-.79,1.28-5.19,1.13-7.61-.27a45.39,45.39,0,0,1-5-3.76c-3-2.55-3.06-2.79-2.57-8.27.49-5.32.39-5.69-1.77-6.51-2.81-1.07-4.12-4.32-4.12-10.28,0-6.53,1.22-8.92,6-11.7,4.55-2.67,5.43-4,4.66-6.94C113.19,9.77,116.8,4,120.5,1.78A14.79,14.79,0,0,1,126.92,0c3.8,0,11.45,1.59,14.1,2.94a6.76,6.76,0,0,0,4,.26c1.76-.44,2.33-.22,2.33.92,0,.89-.78,1.51-1.88,1.51a1.66,1.66,0,0,0-1.87,1.88c0,1-.63,1.87-1.41,1.87s-1.41-.83-1.41-1.87c0-2.91-2.79-2.24-3.89.94-.54,1.54-1.52,2.81-2.17,2.81a9.28,9.28,0,0,0-3.73,2c-2.79,2.19-4.08,1.63-4.49-2-.23-2,.26-2.38,3.49-3.1,6.34-1.41,6.45-1.48,5.15-3-1.72-2.07-9.19-1.79-12.92.48-3.94,2.41-5.21,5.79-4.51,12,.52,4.54.41,4.92-1.38,4.92-2.22,0-5.71,1.66-6.74,3.19-1.23,1.85-.75,7,.8,8.52,2.34,2.34,3.48,1.28,4.55-4.26,1.15-6,2.81-6.75,6-2.69,1.59,2,2,3.47,1.61,5.19-.7,2.8-2.74,2.54-3.17-.4s-2-2.48-2,.66,1.22,4.37,4.8,5.27c2.23.56,2.49.32,3-2.72C126.44,27,137.29,19.77,149.71,19c10.86-.69,24.24,3,27.08,7.53,1.66,2.63.07,2.8-4.71.51a73,73,0,0,0-8.78-3.43c-2.33-.69-5.2-1.63-6.38-2.09-4.68-1.83-14.27.28-14.27,3.14,0,1,2.23,1.26,9.84,1.26,6.45,0,10.24.39,11,1.13a4.52,4.52,0,0,0,2.78,1.13c.9,0,3.79,1.27,6.42,2.82s5.6,2.82,6.61,2.82c1.31,0,1.84.64,1.84,2.21a8.84,8.84,0,0,0,1.68,4.46c2.46,3.29,3.95,7.13,3.95,10.22a47,47,0,0,0,1,7.55l1,4.82,3.42-.64a13.38,13.38,0,0,0,4.5-1.53c1.56-1.29.44-4.46-2.19-6.18a3.71,3.71,0,0,1-2-3.93c.26-2.22.66-2.44,4.51-2.44h4.22l.25-4.22c.32-5.51-1.4-8.66-5.4-10-4.86-1.58-5.6-3.47-2.54-6.52s3.2-5.09.42-7.66c-4-3.66-8.78-5-13.37-3.81-5.28,1.41-6.85.2-7.23-5.59-.25-3.79-.64-4.48-3.31-5.79-3.48-1.71-3.94-2.89-1.13-2.89,4.42,0,7.89,3.24,8.84,8.29.47,2.47.93,3,2.18,2.46,3.62-1.53,5.75-1.44,9.37.41a17.37,17.37,0,0,1,4.36,2.83c.31.5,5.13.74,11,.56,8-.25,10.95,0,12.4,1a7.63,7.63,0,0,0,3.55,1.33c3.67,0,7.29,10.06,7.31,20.3,0,6.26-.16,6.81-2.55,8.37a40.44,40.44,0,0,0-4.38,3.39,11.8,11.8,0,0,1-5.19,2.24c-6.47,1-7.38,1.36-8,2.88-.51,1.34-.06,1.46,3.41.9,2.21-.35,4.41-1,4.9-1.53a4.06,4.06,0,0,1,2.5-.89c.88,0,3.78-1.72,6.44-3.82,6.83-5.4,9.71-5.65,15.24-1.31,2.44,1.9,4.7,4.29,5,5.31,1.28,4-.89,10-6.79,18.86-5.73,8.56-6.51,9.12-12.75,9.12-4,0-5.43-.32-5.13-1.18a1.89,1.89,0,0,1,2.15-.85c2.55.47,8.67-1.77,9.3-3.4.89-2.33-.18-2.42-3.74-.32-4.11,2.42-7.22,2.53-10.55.35-1.38-.9-2.18-1.11-1.78-.46,1.36,2.21-2,2.27-5.3.09-4.53-3-5.55-5-5.48-10.76,0-2.75-.35-5.24-.85-5.55-1.89-1.17-.76-4.11,2.8-7.33,3.24-2.92,3.64-3.73,3.2-6.44a6.91,6.91,0,0,1,6.78-8.26c2.59,0,3.21.36,3.21,1.87s-.62,1.88-3.31,1.88c-3.67,0-5.15,1.94-3.25,4.24,1.51,1.81,5.59,1.78,8.23-.07,1.83-1.28,2.09-2.29,2.09-8.37,0-8.09-.52-9.88-2.87-9.88-1,0-3.55-1.2-5.77-2.68-7.12-4.73-10.81-4.44-18,1.42-2.84,2.31-2.47,5,.68,5.05a6.67,6.67,0,0,1,3.48,1.17c1.54,1.2,3.46,7.72,3.6,12.23.16,5.13-4.11,10.27-6,7.21-.74-1.19-2.35-1.22-2.35,0,0,.49,1.06,2,2.35,3.42s2.34,3.16,2.34,3.93c0,4.28-13,8.89-15.77,5.58-.55-.65-1.13-3-1.29-5.32s-.72-4.27-1.24-4.44-.82,2.66-.63,7.76c.32,8.5-1.46,15.13-5.74,21.33l-1.84,2.66,4.07,3.67c2.24,2,4.93,3.91,6,4.19L191,96.77c6.38,1.65,12.13,5.15,23.28,14.17,3.42,2.76,8.6,7.84,18.44,18.1,4.3,4.48,8.49,11.92,8.49,15.06,0,.81,1.21,3,2.7,4.94a74.56,74.56,0,0,1,5.49,8.62c1.54,2.84,3.77,6.86,5,8.92,4.59,7.94,5.61,10.77,5.6,15.67,0,5.33-1.17,7.1-9.66,14.62-1.91,1.69-3.47,3.46-3.47,3.93s2.24,3.53,5,6.78c5.65,6.72,10,14.63,10,18.06s-1.88,6.9-4.19,7.48a15.4,15.4,0,0,0-4.58,2.49c-2.08,1.63-2.5,2.71-2.5,6.44,0,3.15.51,4.94,1.72,6,2.34,2.12,3.33.82,1.5-2-.82-1.25-1.26-2.5-1-2.78.92-.93,4.78,2.24,6.08,5,.7,1.48,1.62,3.34,2,4.11,3.52,6.52,12.17,24.09,12.16,24.72a8.57,8.57,0,0,0,1.74,3c2.09,2.67,4.34,12.58,3.56,15.71s-4,7-7.29,8.71c-2.47,1.28-3.69,1.28-11.41,0-4.76-.77-11.19-1.53-14.29-1.68l-5.63-.27.24,3.75c.13,2.07.49,7.06.8,11.1.56,7.17-.6,14.57-2.71,17.29-.5.65-2.54,1.17-4.54,1.17-3.43,0-3.64.17-3.64,2.87a14.78,14.78,0,0,1-1.43,5.63c-1.15,2.21-2.06,2.77-4.51,2.77-4.1,0-5.32-1.45-5.32-6.29,0-3.45-.53-4.55-3.61-7.56-5.1-5-5.88-6.92-5.88-14.58,0-5,.75-9.05,2.87-15.53,1.57-4.82,2.85-10.1,2.85-11.73,0-5.47-3.55-17.06-7.42-24.41-2.11-4-3.83-8.28-3.83-9.52,0-2.61-1.84-4.23-2-1.71,0,.94-.18,5.08-.32,9.21s-.59,15.64-1,25.57c-.83,20-.83,20,4.83,15.68,1.73-1.32,3.14-2,3.14-1.45,0,1.57-5.71,7.58-8.63,9.1-2.59,1.34-2.7,1.63-2.08,5.76a26.7,26.7,0,0,0,3.34,8.58c1.47,2.33,2.68,5,2.68,5.93a8.06,8.06,0,0,0,1.14,3.54c2.55,4.08-2.16,13.52-10.64,21.3C190,363,188.9,367.81,191,373.72c2,5.66,1.8,11.85-.44,15.51-1,1.68-2.22,3-2.66,3-1.73,0-3,5.09-2.9,12,0,4-.4,8.47-1,10-1.35,3.5,1,10.95,4.37,14.11,2.33,2.16,2.34,2.28,1.24,8.84S188.56,444,191,449a47,47,0,0,0,3.08,5.68c.32.33.51,7.77.42,16.53-.16,16-1.4,30.1-3,34-.47,1.16-1.78,5.26-2.91,9.14s-2.6,8.77-3.28,10.89c-2.4,7.53-5.94,23.5-6.56,29.54-.57,5.48-.36,6.73,2,11.71a118.69,118.69,0,0,0,7.15,12.39c2.5,3.76,4.55,7.45,4.55,8.22s.35,1.39.78,1.39,2.12,1.86,3.75,4.14c3.72,5.17,4,10.07.78,14.08-1.21,1.5-2.79,2.83-3.52,2.94s-3.83.68-6.89,1.25-5.81,1-6.1,1-4.07-.88-8.38-1.85Zm21-5c1.84-1.2,2.34-2.33,2.34-5.22,0-3.11-.51-4.07-3.31-6.21-3.1-2.36-3.76-2.49-10.24-2-8.56.65-10.85,1.76-10.85,5.26,0,3.22,1.81,8.75,3.21,9.78,1.76,1.31,16.29.07,18.85-1.61Zm-24.1-1.65c-.38-2.53-2.22-3.26-3-1.2-.73,1.91,0,3.24,1.89,3.24.92,0,1.31-.72,1.12-2Zm-5-10.4c-.36-1.16-.88-3.27-1.15-4.69-.62-3.27-3.09-3.44-3.09-.2,0,2.62,2.49,7,4,7C165,595,165.11,594.11,164.72,592.88Zm8.65-2.58a18.79,18.79,0,0,1,8.92-1.87c5.85,0,6.54-.79,3.94-4.49-3.93-5.62-20.12.29-20.12,7.34C166.11,592.77,169.66,592.29,173.37,590.3Zm-50.69-8.2c1.94-.91,3.68-2.48,3.87-3.49.57-2.94-2.52-7.58-6.55-9.85l-3.72-2.09-5.13,3.11c-3.63,2.2-5.68,4.23-7,7-2.25,4.65-2.25,4.6-.26,6.59,1.33,1.33,2.73,1.5,8.44,1a38.43,38.43,0,0,0,10.35-2.24Zm33.11-1.24c0-.48-1.69-.88-3.76-.88-4.49,0-5,1.62-.7,2.07C154.77,582.41,155.79,582.14,155.79,580.86Zm-15.37-2a60.4,60.4,0,0,1,9.08-3.08c4.88-1.12,5.91-2.67,2.08-3.15-2.69-.33-11,3.23-14.56,6.23C134,581.41,134.74,581.41,140.42,578.87Zm33.67.17c.32-.52,2.24-.94,4.28-.94,3.41,0,4.8-1.08,2.9-2.25-1.43-.89-7.24.53-9.58,2.32s-2.27,1.77-.24,1.79a3.46,3.46,0,0,0,2.64-.92Zm-5.5-2.81a15.68,15.68,0,0,1,6.93-3.4c4.33-.7,4.66-2,1.34-5.3-1.83-1.84-2.24-3-1.77-4.84.86-3.43-.39-11.07-1.68-10.27-2.15,1.33,1.57-18.73,4.9-26.4,1.1-2.53,4.21-12.25,5.41-16.9.54-2.06,1.84-6.71,2.9-10.32,5.09-17.31,5-27.71-.47-49-1.89-7.39-2.6-7.88-8.43-5.85-1.51.52-6.74,1.05-11.63,1.17-8.85.22-8.89.23-8.74,2.56.41,6.2,1.68,11.05,3.57,13.61,5.22,7.08,8.67,15.49,6.35,15.49-.87,0-2.51-2.58-6.11-9.61-1.52-3-3.14-5.16-3.6-4.88-1.11.69-1.06,9.8.11,18.88,1,7.59,1.83,11.21,4.69,20,4.31,13.23,4.72,26.53,1.55,50.21-1.82,13.53-1.94,20.39-.43,24.56.62,1.72,1.31,3.12,1.52,3.12a22.35,22.35,0,0,0,3.59-2.81Zm-34.87-3.76c-1.23-4.9-1.58-8.49-1-10.08s.69-1.55,1.53,0a2,2,0,0,0,2.28,1.08c1.06-.41,1.39.25,1.39,2.8,0,1.83-.43,3.59-.94,3.9-1.12.69-1.27,4.23-.19,4.23,2.72,0,4.4-9.35,1.95-10.86-.65-.41-.84-2.15-.5-4.66.75-5.42-.89-6.84-5-4.34a17.54,17.54,0,0,0-4.35,3.77c-1.21,1.73-1.2,2.3.07,4.76.82,1.58,1.45,5.18,1.45,8.31s.3,5.83.68,6.2c1.23,1.23,3.2-2.62,2.59-5.06Zm27.7,4.75a2,2,0,0,0-.94-1.46c-.52-.32-.94.07-.94.88s.42,1.46.94,1.46A.91.91,0,0,0,161.42,577.22Zm-16-9.42c0-2.38-3.33-10-4.76-10.86-.86-.53-1-.13-.48,1.54.37,1.24,1.08,3.95,1.58,6s1.1,4.31,1.34,5C143.74,571.18,145.46,569.94,145.46,567.8Zm-18.17-1.19a17.43,17.43,0,0,1-.58-3.76,1.6,1.6,0,0,0-1.52-1.64c-1.08,0-1.31.47-.82,1.64a27,27,0,0,1,1.15,3.76c.25,1.16.88,2.11,1.39,2.11S127.6,567.77,127.29,566.61Zm23.6-9.47c.17-7.07-.08-10.95-.7-10.95s-1,2.66-1,6.5c0,3.57-.43,6.63-.95,6.8s-.72,2.06-.34,4.81c1.13,8.23,2.68,4.49,3-7.16ZM159,546.31c2.09-5.8,1.86-9.31-1.22-18.67-1.48-4.5-3.22-10.73-3.85-13.82-1.73-8.37-1.72-8.36-3.21-7.12-2.07,1.72-2.3-1.31-2-26.2.29-21.9-.61-33.78-2.56-33.78-1,0-.26,80,.81,88.68,1.26,10.29,2.46,5.64,1.83-7.09-.35-7.17-.21-11.21.38-11.21s.95.74,1,1.64.44,5.87.94,11,1.33,14.37,1.83,20.47,1.22,11.59,1.6,12.2,1.21-1.84,1.83-5.45A77.42,77.42,0,0,1,159,546.31Zm-13.11,9.34c.83-1.35-.61-22.59-1.51-22-1.1.68-1,22.91.09,22.91a1.91,1.91,0,0,0,1.42-.87Zm-4.32-15.6c.22-6,0-8.87-.71-8.87a1,1,0,0,1-1-1c0-.58.8-.75,1.87-.41,1.85.59,1.87.12,1.78-49.44,0-27.52-.39-50.84-.76-51.83-.64-1.71-.74-1.7-2.59.29-3,3.18-3.43,11.46-3.63,65.55-.16,43.47.16,52.24,1.72,47.87.71-2,1.82,0,1.17,2a2.75,2.75,0,0,1-2.6,1.94c-1.95,0-1.94,0,.24,2.36,3.24,3.45,4.16,1.73,4.54-8.5ZM138,536.26c.05-1.09.27-1.31.57-.57a1.87,1.87,0,0,1-.08,1.8c-.31.32-.53-.24-.49-1.23ZM139.47,523c-1-4.76-1.63-54.08-.86-63.59l.75-9.38.61,16.89c1.66,46.44,1.84,57.54.95,58.1-.51.31-1.17-.59-1.45-2Zm-3.89-89.16c.86-3.66-.6-4.1-2.17-.66-1.23,2.71-1.58,57.25-.38,60.18.39.94,1-11.37,1.27-27.38S135.18,435.49,135.58,433.81Zm-7.07,37.54c0-3.05-.17-3.24-.91-1.41s-.38,4.93.6,4.93C128.41,474.87,128.54,473.29,128.51,471.35Zm1.46-38c.46-1.69.34-2.58-.35-2.58s-1.1.32-1.16.71-.33,2-.6,3.51c-.66,3.72-.74,10.23-.26,21.12.38,8.64.41,8.46,1-5.63.36-8,1-15.71,1.34-17.13Zm-66,3.83c-.85-2.94-.91-2.81-1,2.15a46.14,46.14,0,0,0,.62,8.45c.64,2.88.73,2.68,1-2.16A32.59,32.59,0,0,0,64,437.17Zm107.32,4c12.56-1.1,13.61-1.48,13.61-5a16.4,16.4,0,0,0-1.8-6.23c-3.86-7.31-4.74-13.2-2.79-18.8.86-2.46.78-3.3-.47-4.67-.83-.93-1.28-1.92-1-2.21a10.22,10.22,0,0,0,.92-3.57A24.54,24.54,0,0,1,182,394a36.4,36.4,0,0,0,1.9-4,9.59,9.59,0,0,0-3.28-.95c-4.3-.81-4.19-2.18.23-2.89,7.35-1.18,7.74-1.36,7.74-3.57a5.37,5.37,0,0,0-.82-3,35,35,0,0,1-2.78-6.45l-2-5.56,3.19-5.24a62.17,62.17,0,0,1,8-9.92c6.22-6,7.73-8.94,7-13.4-.85-5.12-2.29-8.45-3.94-9.08-1.24-.48-1.38.28-.94,5.33a42.77,42.77,0,0,0,1.09,7.35c.91,2.21-3.32,7.87-6.12,8.2-1.8.21-2.65-.31-3.49-2.15-1.35-3-1.49-13.61-.17-13.61.52,0,.93,2.47.93,5.53,0,4,.39,5.67,1.38,6.06a1.69,1.69,0,0,0,2-.44c.94-1.53-.57-9.59-2.12-11.33s-1-3.58,1.17-3.58c1.37,0,1.56-.76,1.61-6.57,0-3.11-.13-3.28-3.16-3.28-2.79,0-3.24.34-3.66,2.76-.63,3.63-2.23,3.28-2.83-.61-.71-4.7-3.21-4.07-3.57.9-.38,5.22-1.65,5.08-2.66-.28-1-5.52-2.68-5.4-2.68.21,0,6.38-2.05,6.29-2.85-.13-.73-5.78-1.09-6.28-4-5.52-1.85.48-2,1-1.45,6.39.35,3.76.18,6.09-.46,6.49-1.19.74-3-5-3-9.51,0-1.68-.43-3.05-.94-3.05s-.94,2.3-.94,5.11.42,5.37.94,5.68c.89.56,1.37,4.23.54,4.23a3.42,3.42,0,0,1-3.36-3.59c0-3.51-2.17-12.37-3-12.37s-.91,2.53.15,6c2.46,8.11,2.8,10.3,1.8,11.5-1.8,2.17-2.51,1.35-3.61-4.16-1.83-9.26-2.87-12.51-3.81-11.93a1.2,1.2,0,0,0-.22,1.67,24.8,24.8,0,0,1,1.4,5.8c.39,2.58,1,6.23,1.29,8.12.52,3.05.27,3.65-2.32,5.57-6.3,4.65-2.69,14.8,8.54,24,2.07,1.7,2.38,2.5,1.79,4.69-.77,2.88-3.85,4.27-3.85,1.73s-2.52-6.58-4.85-7.84c-3.33-1.8-7.94-9.5-9.28-15.52-.67-2.95-1.56-5.59-2-5.85s-.78-1.94-.78-3.71-.42-3.23-.94-3.23-.94.74-.95,1.64a8.81,8.81,0,0,1-1.86,4c-1.35,1.72-1.81,3.71-1.75,7.51.14,8,1,10.74,3.4,11.09,2.15.3,2.71-.64,1.32-2.23-1.55-1.77-3.14-9.07-2.19-10,1.25-1.26,3-.08,3,2a18.77,18.77,0,0,0,1.47,5.22c.81,1.93,1.24,4.09,1,4.8s.44,2.17,1.58,3.24l2.08,2-2.48-.62c-2.73-.68-4.45.86-2.31,2.06,1.92,1.08,6.2,10,6.2,12.83a27.58,27.58,0,0,1-1.46,6.71c-1.65,4.88-1.26,6.83,2.45,12.25a18.69,18.69,0,0,1,2.92,6.57c.46,4,2.19,2.88,1.86-1.25a14,14,0,0,0-3-7c-3.12-3.94-3.5-5.73-1.11-5.28.94.18,2.93,2.93,4.63,6.41,2.65,5.38,3,7.16,3.29,15.39.21,6.81,0,9.42-.88,9.7-1.43.48-1.56,6.45-.17,7.31a1.6,1.6,0,0,1,.52,1.88c-.26.68.34,2.29,1.35,3.57,2.19,2.78,2.31,4.24.41,5a2.28,2.28,0,0,0-1.4,1.95c0,1.07.63,1.27,2.58.81,1.42-.34,6.8-1,12-1.43Zm-9.33-5.9c-2-2.79-1.85-6.66.26-8.56,2.27-2.06,3.46-2,5.75.5l1.91,2.06,0-3.23c0-3.82.74-5.12,3.27-5.89,2.73-.84,3.61.16,5.46,6.17,2.29,7.42,1.19,9.58-4.58,8.92a12.52,12.52,0,0,0-6.59.83c-3.31,1.72-3.79,1.65-5.5-.8Zm4.44-3.56c-.76-2.88-2.15-3.21-2.15-.51,0,1.44.53,2.41,1.32,2.41S166.7,432.92,166.38,431.68Zm9.44-4c-.35-2.12-1.09-3.5-1.9-3.5-1,0-1.18.81-.69,3.52.79,4.36,1.31,5.32,2.35,4.28C176,431.55,176.13,429.61,175.82,427.69Zm-10.07-22.34c-1-2.41-1-3.8.28-8.6,2-7.62,4.42-8.72,3.42-1.54-.93,6.61-.94,7.39-.09,10.45,1,3.73-2,3.48-3.61-.31Zm-2.45-21a6.46,6.46,0,0,1-.34-3.76c1.28-3.34,8.82-2.31,8.75,1.21-.09,4.83-6.77,6.86-8.41,2.55Zm-15.42.57c-.29-.45,0-2.18.53-3.84a9.48,9.48,0,0,0,0-6.44,65.88,65.88,0,0,1-1.58-7c-.55-3.5-.51-3.56,1.6-2.47,4.67,2.41,6.39,4.81,6.39,8.91,0,4.7-2.15,10.29-4.27,11.1C148.62,385.88,148.49,385.87,147.88,384.88Zm3.87-13c-.24-.91-.45-.39-.47,1.15s.17,2.3.43,1.66a5.4,5.4,0,0,0,0-2.81ZM175,381.94c-1.09-1.77.57-6.45,2.49-7.06,3.68-1.17,7.08,4.19,4.38,6.89-1.38,1.38-6,1.49-6.87.17Zm-18.39-26.88c-3.71-1-4.77-9-1.7-12.86,3.93-5,7.44-1.86,7.44,6.65C162.36,355.35,161.44,356.35,156.62,355.06Zm2-6.42c0-4.14-1.15-5.59-2.22-2.8-.7,1.83.33,7,1.4,7,.45,0,.82-1.9.82-4.23Zm13.62,3.88c-2.5-1.82-3.19-11.85-1-15.13,3.69-5.62,8.45-.74,8.51,8.71,0,4.24-.37,6.14-1.38,6.79A5,5,0,0,1,172.22,352.52Zm4.67-4.33c.72-1.16-1.42-8.46-2.48-8.46s-1.08,7.84-.17,8.76A1.57,1.57,0,0,0,176.89,348.19ZM168,325.65c0-2.06.42-3.75.94-3.75s.93,1.69.93,3.75-.42,3.76-.93,3.76S168,327.72,168,325.65ZM152.65,435.22c-.26-.65-.47-.12-.47,1.17s.21,1.82.47,1.18A3.51,3.51,0,0,0,152.65,435.22Zm-28.15-.94c-.26-.64-.47-.12-.47,1.17s.21,1.82.47,1.18A3.64,3.64,0,0,0,124.5,434.28ZM62,413.81c-.74-1.76-.93-.35-.8,6.16.22,11.46,1.16,14.07,1.49,4.16.15-4.42-.17-9.07-.69-10.32Zm71.29,9.89c.66-.79.94-1.68.63-2-1-1-3.46.47-3.46,2,0,1.84,1.31,1.84,2.83,0Zm8.11,0c.3-.79.35-1.65.1-1.9-.83-.83-3.53.72-3.53,2,0,1.78,2.73,1.67,3.43-.14Zm-14.3-1.7c-.61-1.57-2.27-2.15-2.27-.79,0,.91,2.09,3.1,2.54,2.65.17-.17,0-1-.27-1.86Zm-5.1.57a5.88,5.88,0,0,0-.93-2.11c-.73-1.14-.91-1-.92.7,0,1.16.41,2.11.92,2.11S122,422.94,122,422.55Zm32.68-5.71c.25-3.38,0-4-1.88-4.74-3.63-1.36-4,.6-1.56,7.24C152.46,422.64,154.34,421.27,154.67,416.84Zm-13.9-6.26c0-5.63-.28-7-1.41-7s-1.4,1.16-1.39,4.92c0,5.64.77,9.15,2,9.15.46,0,.83-3.16.83-7Zm-4.57,4.93c.25-2.39-.33-10.58-.8-11.36-1-1.64-1.91,1.63-1.44,5.15.32,2.36.12,3.63-.57,3.63s-1.06-1.47-1.06-3.28-.43-3.29-.94-3.29c-1,0-1.32,8.7-.32,9.7S136.07,416.73,136.2,415.51Zm-9.19-3.8c-.6-3.74-1.62-4.47-2.55-1.83-.32.9-.8,2.1-1.08,2.66-.4.82,3.26,3.4,4,2.81a16,16,0,0,0-.36-3.64ZM59.58,381.49c-.82-10.32-1.92-24.67-2.43-31.88s-1.13-13.3-1.37-13.54-.87,0-1.4.52c-1,1-.11,11.39,2,24.25a158.75,158.75,0,0,1,1.13,16.75c.12,6.11.54,11.31.93,11.55s.7,4,.7,8.28.32,8.62.71,9.57c1.36,3.33,1.27-6.55-.25-25.5Zm67.51,19.61c1-.39,1.48-1.76,1.48-4.28,0-2.23-.37-3.48-.94-3.13a3.15,3.15,0,0,0-.94,2.4c0,1-.42,1.82-.93,1.82s-.94-1.18-.94-2.62a6.82,6.82,0,0,0-.78-3.52,19,19,0,0,1-1.86-4.65c-3.8-13.08-5-15.69-6.43-14.24-.46.46.83,5.23,2.58,9.55,1.17,2.9,4.48,13.78,5.06,16.66.54,2.66,1.15,3,3.7,2Zm7.11-2.72a3.78,3.78,0,0,0-.94-2.81c-.51-.32-.93-2.22-.93-4.22s-.43-3.91-.94-4.23-.94-1.76-.94-3.2a21.53,21.53,0,0,0-.86-5.34c-.48-1.5-1.12-3.88-1.43-5.3s-1.19-2.58-2-2.58c-1.58,0-1.77,1.16-.57,3.53a31.07,31.07,0,0,1,2.93,11.18,22.8,22.8,0,0,0,.83,5.56c.46,1.5,1.36,4.5,2,6.68,1.24,4.15,2.78,4.55,2.78.73Zm-14.62-1.64a78.9,78.9,0,0,0-3.24-12.43c-.41-1-1.31-3.92-2-6.41s-1.78-5-2.43-5.51c-1.74-1.44-1.52.06,1.2,8.39,1.31,4,2.82,8.76,3.35,10.57,1.31,4.41,2.87,8.44,3.28,8.44C119.93,399.79,119.86,398.42,119.58,396.74Zm16.5-8.72c0-8.54-2.6-18.95-5.3-21.19-1.25-1-1.34-.72-.75,2.52a25.29,25.29,0,0,0,1.38,5.1c.93,1.85,2.79,14,2.79,18.25,0,1.83.42,3.34.94,3.34s.94-3.3.94-8Zm-9.42-.66c0-2.2-.64-4.81-1.39-5.8-1.72-2.27-2.83-1.36-1.47,1.2a13.53,13.53,0,0,1,1,5.24c0,1.84.42,3.35.94,3.35s.92-1.8.9-4ZM122.94,373a17.32,17.32,0,0,0-1.88-5.13,18.55,18.55,0,0,1-1.87-6.94c0-1.8-.43-3.53-.94-3.85a3.41,3.41,0,0,1-.94-2.59c0-1.27-.33-1.68-.89-1.12s-.57,2.3,0,4.65c1.13,4.91,1.13,7,0,7-.51,0-.94-.93-.94-2.07,0-1.47-.29-1.77-1-1.05-.56.56-.87,2.23-.7,3.71.26,2.27.68,2.65,2.69,2.42s2.62.3,3.7,3.05c1.35,3.43,2.83,4.42,2.83,1.88Zm1.13-13.87a20.24,20.24,0,0,1-1.13-5.58c0-1.35-.42-2.72-.94-3s-.94-1.91-.94-3.53c0-2.18-.27-2.67-1-1.89s-.77,2.71.07,7.46c1.5,8.49,2.84,12,4.12,10.68.7-.69.66-1.92-.13-4.1Zm-25.53-2.46a2,2,0,0,0-.94-1.47c-.51-.32-.94.08-.94.89s.43,1.46.94,1.46A.91.91,0,0,0,98.54,356.68Zm-4.69-.94c0-1.11-1.83-2.29-2.5-1.62s.51,2.5,1.61,2.5A.89.89,0,0,0,93.85,355.74Zm18.06-27.19c-1.56-2.61-2.78,14.27-1.52,21.21.69,3.88.88,2.72,1.28-8.15C111.93,334.64,112,328.76,111.91,328.55Zm-24.63,23.9c0-.22-.42-.67-.94-1s-.94-.13-.94.41a1,1,0,0,0,.94,1C86.86,352.87,87.28,352.68,87.28,352.45Zm38.48-11.73a3.15,3.15,0,0,0-.94-2.4c-.53-.33-.94.46-.94,1.82s.42,2.4.94,2.4S125.76,341.72,125.76,340.72Zm6.57-.11a.92.92,0,0,0-.94-.88c-.52,0-.94.66-.94,1.46s.42,1.2.94.89A2,2,0,0,0,132.33,340.61Zm93.34-.18c.92-3.41,2.57-9.52,2.93-10.79.51-1.83,2.39-1.38,2.93.7,1.39,5.32,5.9-.92,5.91-8.16A172.75,172.75,0,0,0,235,300.67c-.48-2.54-4.74-4.32-9.42-3.94-3.15.26-3.9.8-5.74,4.13C217.21,305.7,213,320,213,324.2c0,3,1.35,5.11,2.55,3.91.3-.3.74-2.65,1-5.24.49-5,2.54-8,3.6-5.28a7.1,7.1,0,0,1-.52,4.2c-1.53,3.69-.94,10.9.89,10.9,1.06,0,1.48-1.38,1.7-5.6.28-5.54,1.5-8.47,3.1-7.47,1.4.86.93,5.75-1,10.95-1.87,4.91-2.45,10.16-1.26,11.35s2.06.64,2.63-1.49Zm-134.83-8c-.12-1.89-.52-2.71-1.07-2.17-1,1-1.62,8.52-.8,9.87S91.06,336.05,90.84,332.46Zm53.68,3.22v-3l-1.39,2.68c-1.4,2.69-1.1,4.86.53,3.85.48-.3.87-1.89.87-3.54Zm-61.29.12c-.3-.75-.52-.53-.57.57s.18,1.54.49,1.23a1.9,1.9,0,0,0,.08-1.8ZM129.51,333c0-1.1-.48-1.48-1.41-1.13s-1.39,1.71-1.38,3.49c0,2.8.11,2.86,1.41,1.13a7,7,0,0,0,1.38-3.49Zm-31,2.44c0-.8-.42-1.2-.94-.88a2,2,0,0,0-.94,1.46.91.91,0,0,0,.94.88C98.12,336.91,98.54,336.26,98.54,335.45Zm8.68-3.46c.26-2.46.1-4.46-.35-4.46s-.82,2.18-.82,4.85C106.05,338.23,106.56,338.06,107.22,332ZM56.94,325.2c3.52-5.42,7-9.85,7.66-9.86.88,0,.65,1-.81,3.32-2.74,4.43-1.47,5.44,2,1.58a8.94,8.94,0,0,0,2.74-6.75c0-2-.43-3.95-1-4.28a27.89,27.89,0,0,0-6.34-1.11,29.09,29.09,0,0,1-10.36-3.22c-2.74-1.48-5.56-2.69-6.27-2.69-2.95,0-2,9.19,1.94,18.05,1.77,4,2.22,6.21,1.75,8.67-.66,3.54-.08,6.13,1.37,6.13C50.13,335,53.41,330.61,56.94,325.2Zm60.37,7.38c0-.77-.42-1.15-.94-.83a2.58,2.58,0,0,0-.94,2c0,.77.43,1.15.94.83A2.55,2.55,0,0,0,117.31,332.58Zm30.89-9c-.64-1.94-1.51-3.52-1.95-3.52-1.11,0-1,4.46.15,5.16.52.32.94,2.39.94,4.59s.32,4.34.7,4.73C149.28,335.75,149.4,327.19,148.2,323.54Zm-64,2.36c-.23-.91-.44-.39-.46,1.16s.17,2.3.43,1.66A5.34,5.34,0,0,0,84.17,325.9Zm36.89,1.63c0-1-.42-1.88-.93-1.88s-.94.85-.94,1.88.42,1.88.94,1.88S121.06,328.56,121.06,327.53Zm5.08-2.11c.41-2.23.28-3.52-.34-3.52s-1,1.76-1,3.91q0,6.92,1.32-.39Zm6.19-.29c0-.75-.43-1.36-.94-1.36s-.94.87-.94,1.94.42,1.67.94,1.35A2.51,2.51,0,0,0,132.33,325.13Zm-22.8-8.39a264.55,264.55,0,0,1,5.09-38.95c3.15-14.24,5.42-21,12.2-36.36a34.75,34.75,0,0,0,1.75-4.46c0-.49,1.51-4,5.66-13.14,1.18-2.58,3.56-8.9,5.3-14.05s3.79-10.3,4.55-11.46a8.33,8.33,0,0,0,1.39-3.32c0-.66,1.69-3.43,3.75-6.15s3.75-5.31,3.75-5.75c0-1.26,2.79-3.26,3.52-2.53.35.36-.24,2.43-1.33,4.59-4.08,8.13-9.56,24.81-15.15,46.17-1.09,4.13-3,11.52-4.32,16.43-3,11.53-5.65,31-7.56,56.33-.86,11.32-2.14,10.76,25,10.81,18.37,0,24.18.35,29.73,1.67,6.73,1.6,10.47,1.45,10.47-.41a13.52,13.52,0,0,0-1.44-3.7c-1.22-2.35-1.38-6.61-1.06-27.41.22-14.48.88-27.42,1.61-31.4.93-5.13,1-7.31.16-8.92-1.33-2.68-3.14-14.8-2.39-16,.31-.5.67-4.34.8-8.53a57.16,57.16,0,0,1,1.39-11.38,50.8,50.8,0,0,0,1.58-8c.36-3.45.07-4.57-1.52-6a5.73,5.73,0,0,1-2-3c0-4.1-4.18,3.23-5.7,10-.41,1.81-1.17,4.77-1.68,6.57s-1.71,6.32-2.65,10c-2,7.89-3.11,9.53-3.11,4.6,0-6.17,6.8-29.39,10-34.31a13.5,13.5,0,0,0,2.15-4.56,21.85,21.85,0,0,1,2.28-5.65,32.5,32.5,0,0,0,2.85-7.84,15.62,15.62,0,0,1,2.67-6.1c2.12-2.66,6.28-9.91,6.28-10.95,0-1.4-2.16-.29-6.87,3.55-5.09,4.15-21.3,12.38-28.32,14.38-2.07.59-7.14,1.77-11.26,2.63-21.07,4.38-24.95,5.31-31.44,7.57a47.68,47.68,0,0,0-10,4.64c-10.44,7.87-39.89,39.29-49.18,52.48-2.84,4-5.69,7.87-6.33,8.54a4.07,4.07,0,0,0-1.18,2.06c0,.46-1.41,2.5-3.15,4.52-3.48,4.08-13.76,24.56-13.7,27.3,0,.95,1.29,3.19,2.82,5,3.14,3.68,3.74,5.9.9,3.32a5.47,5.47,0,0,1-1.88-3,1.35,1.35,0,0,0-1.41-1.26c-4.56,0,1.36,8.1,8.83,12.08,6.67,3.55,8.15,3.59,11.94.31,2.56-2.22,8.79-13.56,8.79-16a32.49,32.49,0,0,1,2.65-5.91c1.46-2.76,3.07-5.86,3.59-6.9l5.56-11.18A100.58,100.58,0,0,1,90.63,246a25.68,25.68,0,0,0,3.19-5.71,86.7,86.7,0,0,1,6.28-10.94c2.75-4.21,5-8.1,5-8.66s1-1.67,2.28-2.49c2-1.28,6.78-7.88,12-16.39,2.48-4.05,10.25-12.2,11.63-12.2,2.09,0,1.64,1.14-3.58,9-2.69,4.07-6.84,11.23-9.23,15.9s-5.63,11-7.22,14.08a111.43,111.43,0,0,0-4.91,11.2,49.43,49.43,0,0,1-2.74,6.57,50.1,50.1,0,0,0-2.84,6.58c-1.17,3.1-3,7.53-4,9.85A67.24,67.24,0,0,0,92,274.27c-.55,1.94-1.39,4.89-1.86,6.57s-1.77,7.06-2.87,12-2.39,10.44-2.88,12.3c-1.64,6.23-1.16,8.73,2.15,11.22,5.46,4.09,12,6.4,17.6,6.21l5.16-.17.2-5.63Zm49.95-41.87c-1.48-2.78-1.28-13.3.41-20.54.78-3.36,2.12-9.06,3-12.67,1.54-6.53,8.62-29.69,9.9-32.38.37-.77,2.08-4.89,3.81-9.14,2.87-7.06,4.56-9.51,4.56-6.65,0,1.37-1.74,6.81-3.46,10.83-2.86,6.67-8.23,24.23-10.71,35-4.94,21.43-6,27.13-5.91,32.61a21.45,21.45,0,0,1-.23,4.93A6.78,6.78,0,0,1,159.48,274.87ZM61,273.33c0-.76,11.65-23.95,14.72-29.33,3.64-6.38,10.85-17.38,12.76-19.47,5.45-6,3.13.89-3.81,11.19-4.39,6.52-10.72,18-17.69,32-1.81,3.64-3.75,6.34-4.57,6.34S61,273.72,61,273.33Zm108.5-6.76c-.58-3.66,1.11-14.71,5.23-34.07,1.18-5.55,3.09-7.2,2.31-2-.3,2-.78,5.33-1.06,7.39s-.92,6.5-1.41,9.86-1.36,9.79-2,14.31-1.4,8.21-1.79,8.21S169.84,268.61,169.51,266.57Zm10.7-6.57c-.9-2.16-.91-5-.06-12.9a115.19,115.19,0,0,1,2-13A29.43,29.43,0,0,0,183,227c0-2.32.63-5,1.4-6,1.25-1.64,1.33-1,.78,6.53-.45,6.23-.32,8.19.49,7.69a3.2,3.2,0,0,0,1.09-2.49c0-1,.48-1.82,1.06-1.82.75,0,.89,1.9.5,6.33-.87,9.57-2.36,21.09-3,23.46C184.4,263.67,181.57,263.3,180.21,260Zm4.67-15.06c0-3.75-.4-6.57-.94-6.57s-.94,2.82-.94,6.57.41,6.57.94,6.57S184.88,248.7,184.88,244.94Zm3.75-41.7c0-2.36.43-4.28.94-4.28s.94,1.66.94,3.7-.42,4-.94,4.27S188.63,205.85,188.63,203.24Zm-7.5-13.52c0-1.25,2.83-6.62,3.81-7.22,1.33-.83,1.06,1.25-.64,4.82C182.91,190.26,181.13,191.6,181.13,189.72ZM117.3,312.28c0-4.13-.29-5.45-.93-4.46-1.2,1.86-1.2,10.32,0,10.32C116.9,318.14,117.3,315.57,117.3,312.28Zm5.42-2.35c-.32-2.4-.4-2.34-1.1.93a10.68,10.68,0,0,0,0,5.17c.62,1.36.81,1.2,1.1-.94a22.83,22.83,0,0,0,0-5.16Zm-41.07-2.58c0-.77-.42-1.41-.94-1.41s-.94.64-.94,1.41.42,1.41.94,1.41S81.65,308.13,81.65,307.35ZM198,293.51c0-9-.31-12.91-.92-12-1.23,1.9-1.23,25.34,0,25.34.58,0,.93-5.07.92-13.37ZM81.65,301.89a31.23,31.23,0,0,1,1.87-7.21c1.92-5.24,2.52-9.55,1.11-7.93a21.11,21.11,0,0,0-2,5.12c-.66,2.32-1.58,5.19-2,6.38-1.14,2.91-1.07,7,.1,6.29a3.53,3.53,0,0,0,.94-2.65Zm-12.89,1.05c2.95-.88,4-1.84,5.13-4.46.76-1.83,2.32-5.44,3.47-8s3.48-8.28,5.17-12.67,3.83-9.67,4.73-11.73c1.93-4.39,3.29-8.66,2.55-8-.91.84-6.29,11.41-6.29,12.35a47.87,47.87,0,0,1-2.9,7.17c-1.6,3.46-3.35,7.34-3.88,8.63-3.73,9-6.9,13.29-11.14,15.05-2.7,1.12-3.69,2.78-1.66,2.78a28.8,28.8,0,0,0,4.82-1.13Zm201-3.16a5.67,5.67,0,0,0,1.44-3.52c-.05-3.12-2.36-12.11-4-15.72-3.17-6.85-5.34-13.83-4.76-15.33.39-1,.18-1.48-.61-1.3s-1.47-1-1.82-2.56c-.77-3.49-3.39-7.62-5.3-8.35-1.14-.43-1.32,0-.89,2,1.26,6-4.07,17.76-9.87,21.89-3.37,2.4-4.84,7.08-5,15.83l-.11,7.09,3.76-.11c2.06-.06,5.65-.19,8-.29a63,63,0,0,1,9.86.68c3.09.47,6.13.92,6.73,1a4.1,4.1,0,0,0,2.59-1.33Zm-231.3-6.27c0-1.6-2.37-4.56-3.05-3.88s1.26,5.05,2.29,5.05C38.12,294.68,38.46,294.15,38.45,293.51Zm197.28-5.16a28.2,28.2,0,0,1,2-8.59c2.83-5.66,2.47-6-5.5-5.52-4.29.28-7.62,1-8.4,1.77-1.37,1.39-3.55,12.76-2.71,14.12.27.44,1.63.82,3,.84a16.09,16.09,0,0,1,5.34,1.33c5.2,2.38,5.83,2,6.27-3.95Zm38.39,1.35c-.74-.74-1-.5-1,.88,0,2.49,1.31,3.8,1.73,1.74A3.24,3.24,0,0,0,274.12,289.7Zm-156.38.35a1.08,1.08,0,0,0-.41-1.46c-.53-.32-1,.07-1,.87C116.37,291.11,116.93,291.36,117.74,290.05Zm-84.89-7.69c0-2.31,3.71-10.2,4.79-10.2.46,0,.84-.82.84-1.82a3.14,3.14,0,0,1,.94-2.41,14.15,14.15,0,0,0,2.64-4c2.67-5.46,4.27-8,6-9.66a5.21,5.21,0,0,0,1.64-2.31c0-.44-1.69.86-3.75,2.88s-3.76,4-3.76,4.48A20.6,20.6,0,0,1,39.58,264c-3.5,5.19-8.5,15.79-9.26,19.63-.55,2.78-.46,2.95,1,1.78A4.62,4.62,0,0,0,32.85,282.36Zm8.44-7.86c2.84-5.91,5.48-10.75,5.87-10.76s.7-.66.7-1.44c0-3.65-2.54,0-9.37,13.61-1.17,2.33-2.49,5-3,5.86-1,2-1,3.53-.11,3.5C35.81,285.26,38.45,280.42,41.29,274.5Zm-15.13,7c.58-1.55,1.56-4.18,2.17-5.86,1.45-4,4.79-9.39,9.38-15.25,2-2.58,6.66-8.69,10.29-13.58s9-11.69,11.92-15.13,7.42-8.81,10-11.92,5.64-6.19,6.8-6.84,2.11-1.56,2.11-2a38.21,38.21,0,0,1,2.39-6.06c1.31-2.87,2.11-5.48,1.78-5.8s-2.23,1.29-4.22,3.59-3.94,3.87-4.34,3.47-.15-1.06.53-1.49.88-1,.33-1.33c-1.39-.86-6.07,5.18-4.92,6.33,1.55,1.55,1.08,2.45-1.3,2.45a3.17,3.17,0,0,1-2.84-1.54c-.62-1.63,1.7-6,3.18-6s6.29-7.66,7.33-11.43.16-5.46-2.61-5.46c-.83,0-4.78,3.33-8.77,7.42s-8.72,8.11-10.5,8.95-3.18,1.83-3.13,2.2c.33,2.22-.9,4-7.87,11.22-12.39,12.89-15.67,16.12-26.29,25.85-14.1,12.93-14.95,16.91-6.42,30,7.06,10.82,12.85,14,15,8.23Zm192.89-3.05c.42-2.28.28-3.52-.37-3.52-1.49,0-2.18,2.48-1.48,5.28.76,3,1,2.74,1.85-1.76ZM118.9,277.1c-.24-.91-.45-.39-.47,1.16s.18,2.29.43,1.66a5.33,5.33,0,0,0,0-2.82Zm120.41-7.76c0-.51-2-1-4.46-1.12l-7-.29c-1.42-.06-2.57-.5-2.56-1s2.89-.86,6.4-.83c5.1,0,7,.49,9.42,2.21,1.67,1.19,3.32,1.87,3.68,1.52s.61-4.63.56-9.49.25-8.84.66-8.84c1.25,0,2,6.28,1.38,11l-.61,4.45,1.89-2.35c2.81-3.49,2.48-8.66-.92-14.62-2.83-4.94-5.45-6.8-7.65-5.44-.63.38-4.21.73-8,.76-9.4.08-10.2,1-10,11.36.06,4.37-.24,7.94-.67,7.94-1.37,0-2.73-3.49-2.73-7,0-1.84-.43-3.34-.94-3.34s-.94.63-.94,1.41-.42,1.4-.94,1.4c-1.94,0-.9-5.39,1.54-8,3-3.23,1.49-4.17-2.33-1.46-2.08,1.48-2.84,2.93-3.3,6.31-1,7.18-.69,12,.86,14.24,1.38,2,2.1,2.08,14.08,2.08,7.78,0,12.61-.36,12.61-.94Zm-40.26-5c-.75-.75-1-.28-1,1.74,0,2.42.15,2.55,1,1,.72-1.24.72-2,0-2.77ZM94.79,248.64a.92.92,0,0,0-.94-.88c-.52,0-.94.66-.94,1.46s.42,1.2.94.88A2,2,0,0,0,94.79,248.64Zm120.62-7.5c3.44-1.63,3.53-1.77,1.2-1.8-3.24,0-7.09,3.4-7.85,7l-.6,2.82,1.76-3.14a13.73,13.73,0,0,1,5.49-4.89ZM58.65,246.82c.32-.52.14-.94-.41-.94a1,1,0,0,0-1,.94c0,.52.18.94.41.94S58.34,247.34,58.65,246.82Zm38-1.93a.92.92,0,0,0-.94-.89c-.51,0-.93.66-.93,1.47s.42,1.2.93.88A2,2,0,0,0,96.66,244.89Zm107.3-.11c.67-2.53-.26-4.24-1.35-2.52s-1.06,4.56,0,4.56c.46,0,1.07-.92,1.36-2Zm29-4.21a3.64,3.64,0,0,0-2.35,0c-.64.26-.12.47,1.17.47s1.82-.21,1.18-.47Zm9.67-2.64c1.8-1.35,1.8-1.37,0-1.4a36.79,36.79,0,0,1-8.85-2.53c-.18-.12.62-1.55,1.78-3.18,1.95-2.73,2-3.36,1-7.64-1.23-5.32-1.42-12-.35-12s3,9.52,3,15.81c0,5.13.22,5.87,1.64,5.59,2.55-.5,2.13-7.76-1.23-21.64-1.08-4.44,1-2.81,2.82,2.2,2.76,7.68,4.39,17.66,3.24,19.81-1.54,2.88-.26,3.11,3.6.64,2-1.25,4.7-2.86,6.12-3.58,4.09-2.09,3.47-5.79-2.58-15.41-2.83-4.52-5.41-9.25-5.73-10.51s-.95-2.3-1.41-2.3-.84-.61-.84-1.36c0-3.83-7.43-2.95-17.45,2.06-2.15,1.07-4.66,1.33-9.62,1-3.69-.26-6.71-.15-6.71.24,0,1.09,5.5,2.79,9.05,2.79,1.73,0,3.15.4,3.15.89,0,1.54-6.26,2.16-11.91,1.19-3-.51-5.93-.72-6.6-.47-1.42.55-1.62,2.14-.26,2.14a1,1,0,0,0,.94-.94.92.92,0,0,1,.89-.94c.49,0,.28,1.47-.47,3.26-1.77,4.22-1.72,7.58.2,13.76,1.83,5.87,5.4,10.2,8.42,10.2a13.08,13.08,0,0,1,4.29.93c1.91.84,13,2.36,19.57,2.7a7.46,7.46,0,0,0,4.22-1.26Zm-21.45-4c-.59-1,1.8-12.5,2.8-13.51.42-.42.55,2.45.3,6.39-.43,6.42-1.72,9.4-3.1,7.12Zm-10-3.28c-2.13-2.29-2.6-8.54-.92-12.23,1.26-2.76,6.46-6.36,9.19-6.36s3.52,2.28,2.21,6a37.41,37.41,0,0,0-1.32,8.32c-.15,3-.49,5.39-.75,5.39-3.21-.08-4.78-7.59-2.53-12.1,1.21-2.42,1.23-2.9.14-2.9-.72,0-2,1.32-2.83,2.94-1.44,2.79-1.43,4.17.11,10.43.78,3.16-.63,3.39-3.3.53Zm18,.19c-1.55-2.49-1.42-9.3.25-12.21.74-1.3,1.36-1.93,1.39-1.41.51,9.36.54,15.48.09,15.48s-1.09-.84-1.73-1.86Zm-3-18.17c0-1.74,3.42-4.69,4.6-4s.22,3.35-1.41,3.35c-.72,0-1.31.42-1.31.93a.94.94,0,0,1-.94.94c-.51,0-.94-.57-.94-1.26Zm-23,19.16c.94-1.52-1.1-2-2.31-.52-1,1.13-.89,1.39.3,1.39a2.59,2.59,0,0,0,2-.87Zm-.8-7.32c-1-1-1.74.48-1,1.75.59,1,.81,1,1.13,0a1.92,1.92,0,0,0-.17-1.75ZM197.08,213c0-.51-.63-.93-1.41-.93s-1.41.42-1.41.93.64.94,1.41.94S197.08,213.55,197.08,213Zm6.38-9.22c1.15-1.73,1.16-2,.06-1.57-1.74.67-4.28,4.6-2.6,4a7,7,0,0,0,2.54-2.47ZM58.78,198.25c2.27-2.64,3.2-9.62,1.28-9.62-.51,0-.94.66-.94,1.46a19.22,19.22,0,0,1-1.87,5.33c-2.93,6.07-2.28,7.27,1.53,2.83Zm168.8,1.14a19,19,0,0,0,5.31-2.44,9.91,9.91,0,0,1,4.59-1.75c3.77,0,12.86-3.87,15.46-6.59,4.14-4.32,4.21-9.64.21-17.48C246.94,158.94,243,151.78,241,149a30.65,30.65,0,0,1-3.21-6.21c-.65-1.87-1.62-3.3-2.15-3.17s-1.23-1.27-1.57-3.08c-1-5.37-8-8.47-9.32-4.16-.69,2.17-13.15,15-14.57,15-2.23,0-4.66,6.15-4.66,11.8,0,4.83-.34,6-2.24,7.64-3.08,2.67-4.63,7.94-4.13,14s2.7,8.82,9,11.18c5.48,2.06,5.21,1.76,3.75,4.16-1.09,1.77-1,2.2.64,3.43,1.92,1.45,8.91,1.38,15-.15Zm-12.2-1.71c-1-.76-1.66-1.53-1.41-1.71,8.67-6,9.33-6.34,15.27-6.95,6.47-.66,11,0,11,1.51,0,.51-2.8.92-6.27.92-6.27,0-12.5,1.53-12.5,3.07,0,.45,2.17.68,4.83.52,6.62-.42,7.12,1.58.6,2.37-2.73.33-6,.84-7.31,1.13a5.59,5.59,0,0,1-4.22-.86Zm-7-10.86a11.75,11.75,0,0,1-1-4.64c0-1.55-.42-3.08-.93-3.4s-.94-2.69-.94-5.27c0-2.89.36-4.47.94-4.11s.94,1.71.94,3.1a43.47,43.47,0,0,0,1.87,8.63c1,3.35,1.87,6.41,1.87,6.8C211.16,189.33,209.32,188.59,208.38,186.82Zm8.08-2.75c-2.06-.46-3-1.46-4-4.35a24.56,24.56,0,0,1-1.32-5.27c0-2.14,5.43-18.43,7.33-21.89l1.57-2.87.3,3.17c.17,1.74-.14,3.62-.7,4.17a4.9,4.9,0,0,0-1,3,4.82,4.82,0,0,1-1,3c-1.16,1.17-.19,9.69,1.1,9.69.45,0,1.1-1.16,1.45-2.58a57.06,57.06,0,0,1,2.4-6.73c1.21-2.85,1.46-4.44.79-5.11-1.6-1.6-1.11-2.47,1.38-2.47,2.87,0,2.9.71.5,10.66a56,56,0,0,0-1.67,11.72c.12,3.07-.28,4.42-1.63,5.4a5.65,5.65,0,0,1-2.31,1.2l-3.2-.7Zm1.84-6c-.85-4.26-2.21-5.29-3-2.27a4.65,4.65,0,0,0,.53,3.89C217.82,182.09,218.94,181.34,218.3,178.11Zm17.28-.91c-1.56-2.56-1.89-4.74-1.9-12.26,0-5.48.38-9.15.94-9.15s.94.82.94,1.82a3.21,3.21,0,0,0,1.06,2.48c.76.47.88-.26.43-2.53-1.34-6.7-2-12.89-1.36-12.48,1.18.73,3.62,10.36,3.62,14.32,0,3.49-1.18,5.81-2.11,4.14-.22-.39-.25-.15-.08.54a40.49,40.49,0,0,1,.31,5.86c0,2.54.43,4.62.94,4.62s.94-2,.94-4.41c0-4.93,1-4.52,2.74,1.17s1.11,8.33-2,8.69c-2,.24-2.94-.33-4.46-2.81Zm-16.29-10.78c-1-1-.73-4.06.31-4.06.52,0,.94,1,.94,2.34C220.54,167.16,220.33,167.46,219.29,166.42Zm1.25-5.94a.94.94,0,1,1,.94.94A.94.94,0,0,1,220.54,160.48Zm4.38-10c-.34-.34-.62-2.67-.62-5.16,0-3.91.26-4.54,1.87-4.54s1.88.63,1.88,5.16c0,3.68-.36,5.16-1.25,5.16A3.1,3.1,0,0,1,224.92,150.47ZM98.54,192.17c0-.55-.6-.46-1.41.22a5.25,5.25,0,0,0-1.41,1.49c0,.18.64.08,1.41-.21s1.41-1,1.41-1.5ZM66.6,189.63c.68-1.27.67-2,0-2.44-1.21-.75-1.4-.56-2.23,2.15S65.24,192.17,66.6,189.63Zm42.19-6.95c.63-1,1-1.92.74-2.14-.52-.52-8.17,7.35-8.17,8.41S107.29,185,108.79,182.68ZM75,179c2.64-3.23,4.8-6.35,4.8-6.94a2.1,2.1,0,0,1,1.41-1.62c1.8-.69,1.83-2.47,0-2.47-1.08,0-1.25-1-.81-4.69.36-3,.2-4.7-.41-4.7-1.23,0-2.1,2.27-2.11,5.48,0,3.43-1.78,9.54-2.77,9.54-1.34,0-3.13-12.44-2.69-18.62.35-4.77.89-6.28,3.11-8.59C77,144.87,78,143.35,77.65,143s-2.32-.27-4.45.09c-4,.67-5.56,2.41-4,4.47.92,1.24,0,28.47-1,29.47-1.51,1.5-3.45-2.06-3.45-6.32,0-2.48-.47-4.81-1-5.17-.75-.46-.94,1.25-.67,6,.3,5.31.13,6.44-.83,5.64a3.5,3.5,0,0,1-1.2-2.29c0-.71-.42-1.29-.94-1.29s-.94,1-.94,2.34.43,2.35.94,2.35.94.57.94,1.26c0,1.78,2.85,4.12,5.63,4.63,1.29.23,2.62.48,2.94.55s2.76-2.51,5.4-5.73Zm42.28-3a3.4,3.4,0,0,0,.6-3c-.51-1.32-1.13-1-3.86,1.87-1.79,1.89-3.25,3.88-3.25,4.41,0,1.18,4.83-1.22,6.51-3.24Zm9.08,1.52a125.57,125.57,0,0,1,16.32-4.8c15.69-3.48,37.59-10.92,47.11-16,7.73-4.14,20.45-13.27,22.83-16.38a18.19,18.19,0,0,1,4.63-4.26c2.32-1.24,6.14-7.33,6.14-9.79a3.78,3.78,0,0,0-1.36-2.39c-1.1-.92-2.47-.08-7.48,4.58-3.37,3.14-6.58,5.7-7.12,5.7-1.94,0-2.21-3.06-.38-4.31,7.19-4.91,9.77-7.35,9.77-9.25a4.93,4.93,0,0,0-.62-2.7c-1.16-1.16-3.14,1.47-3.14,4.18,0,1.72-.48,2.7-1.35,2.7-2.05,0-2.59-1.56-1.35-3.95,2.7-5.2,2.76-5.51,1.4-7.45a32.9,32.9,0,0,0-6.36-5.31,76.81,76.81,0,0,1-6.82-5.06,6.93,6.93,0,0,0-2.47-1.69c-2.28,0-4.65,9.15-2.69,10.36a1.87,1.87,0,0,1,.43,2.44c-.46,1.13-.86,1.34-1.15.58s-1.22-.22-2.61,1.44c-1.58,1.88-2,3.32-1.67,5.25l.5,2.66-2.52-1.65c-2.52-1.65-2.54-1.65-6.23,2-4,3.88-4.53,5.11-2.3,5.11,1.81,0,1.79.15-.57,5.17-2.05,4.35-4.4,5.9-3.2,2.1,1.38-4.38,1.63-7.27.61-7.27-.56,0-1.74,1.16-2.62,2.58a37,37,0,0,1-5.2,5.91l-3.6,3.32,2.9,2.78c3.23,3.07,6.57,9.53,5.87,11.34s-4.08,3.63-11.55,5.95c-8.82,2.74-20.1,6.43-24.4,8-1.81.66-5.19,1.74-7.51,2.41-5.25,1.51-13.06,8.4-9.51,8.4a58.11,58.11,0,0,0,7.27-2.63ZM176,149.62c-2.07-2.07-1.83-3.53.48-2.93,1.15.3,5.09-.88,9.62-2.88,9.18-4.05,10-4.63,10-6.91s-2.42-2.3-3.64-.12c-.5.89-1.26,1.28-1.68.86s0-1.34,1-2c1.85-1.35,1.54-3.93-.92-7.47-1.63-2.36-1.62-3.31.05-3.31s5.68,4.72,8.15,9.56l1.87,3.68-3.09,2.9c-3,2.82-16.84,10.13-19.17,10.13a4.91,4.91,0,0,1-2.63-1.47Zm-6-6.22c-1.63-1.63-1.38-2.63.65-2.63,1.47,0,2.92,1.67,2.92,3.36C173.62,145,171.12,144.46,170.05,143.4Zm14.83-3.85c0-2.47,2-7.21,3.05-7.22s.78,3.69-.73,6.61C185.48,142.27,184.88,142.43,184.88,139.55Zm-4-4.64a18.39,18.39,0,0,1,2.09-5.37c1.39-2.16,1.51-2.19,1.76-.44.34,2.29-2.29,8.86-3.54,8.86C180.62,138,180.49,136.65,180.83,134.91Zm22.64-9.63c.21-1.81.76-3.53,1.22-3.81s.84-1.68.84-3.1a8.64,8.64,0,0,1,1.34-4.4c1.28-1.74,1.37-1.75,2-.11s-.28,5.72-2.63,12.13C204.86,129.76,203,129.29,203.47,125.28Zm-7.71-1.47c-2.72-3.23-3.06-4.62-1.15-4.62,1.15,0,2.85-4.62,3.61-9.78a2.87,2.87,0,0,1,1.47-2.2c.91-.3,1,.58.57,3.68a17.87,17.87,0,0,1-1.3,5c-1.43,2-1.62,5.15-.4,6.76,1.47,2,1.72,4,.48,4C198.57,126.69,197.09,125.4,195.76,123.81Zm5.48-5.44a39.43,39.43,0,0,0,.53-4.46c0-.71.42-1.29.94-1.29,1.48,0,1.1,5.08-.54,7.09C200.78,121.44,200.73,121.36,201.24,118.37ZM84.46,176.79c0-.77-.42-1.14-.94-.83a2.58,2.58,0,0,0-.93,2c0,.78.42,1.15.93.83A2.54,2.54,0,0,0,84.46,176.79Zm4.23-8.8c.32-.52.13-.94-.42-.94a1,1,0,0,0-1,.94c0,.51.18.94.41.94S88.37,168.5,88.69,168Zm38.47-.48c1.55-.07,4-.21,5.33-.3a11.26,11.26,0,0,0,5.26-2.48c3-2.55,14-6.32,23.9-8.18,5.46-1,6.34-1.47,6.34-3.18,0-2.46-7.27-10.72-9.43-10.72-2.67,0-17.95,10.53-16.87,11.62,1.56,1.55,1.2,2-4.19,5.61-3.14,2.08-6.34,3.44-8.21,3.48-3.36.08-8.33,2.59-9,4.53-.3.91.17,1,1.82.5a22.9,22.9,0,0,1,5-.88Zm20.18-10.59c0-1.42,8.41-9,9.13-8.22.4.43.2,1-.45,1.19a1.81,1.81,0,0,0-1.17,1.52c0,.6-1.46,2.25-3.24,3.67-3.37,2.7-4.27,3.08-4.27,1.84Zm11.48-4.12a2.62,2.62,0,0,1,1.48-1.49c.69-.23.9.2.55,1.11-.66,1.71-2.6,2.07-2,.38Zm-73.43,9.27c0-2.89-.26-3.56-.93-2.53-1.21,1.88-1.21,7.79,0,7,.52-.32.94-2.35.93-4.51Zm22.66.72c-3.72-1.62-3.88-1.64-3.88-.5,0,.48,1,1.06,2.11,1.28Q112.67,164.8,108.05,162.79Zm17.56-4.19a30.63,30.63,0,0,1,4.29-2.81c1,0,11.81-7.66,11.81-8.38,0-1.36-2.72-1.94-3.49-.73a8.69,8.69,0,0,1-2.27,2.07c-5.44,3.31-16.73,11.38-16.74,12,0,1.49,2.67.6,6.4-2.11Zm-11.3-.66c.21-1.44-1.25-3-5.87-6.31a56.63,56.63,0,0,1-6.15-4.73,8.92,8.92,0,0,0-.52-1.72c-.35-.9,1.41-2.84,5.17-5.7,5.7-4.34,8.47-5.37,8.52-3.17,0,.73.51.55,1.27-.45,1.81-2.39,2.46-1.07,2.46,5,0,6.25-.62,8.37-2.45,8.37-.9,0-1.34-1.25-1.4-4l-.1-4-1,3c-1.34,4.17-2.58,3.83-2.58-.7,0-2.07-.42-3.76-.94-3.76s-.94,1-.94,2.16a5.55,5.55,0,0,1-1.17,3.36c-.95,1-.54,1.74,2.07,4,4.55,3.83,8.6,3.69,13.17-.43a52.18,52.18,0,0,1,4.86-4,12.53,12.53,0,0,0,2.88-3c1.41-2.07,1.38-2.47-.36-5.8-3.68-7.08-5.87-7.15-6.78-.21-1.18,9-1.75,11.51-2.57,11.51-1.2,0-1-12.74.22-16.93.94-3.12.84-3.77-.86-5.59-1.05-1.14-2.62-4.93-3.48-8.43-1.52-6.2-1.51-6.47.39-10.2,2.48-4.85,2.46-5-.51-4.66-2.14.25-2.78,1.18-4.76,6.86-1.26,3.62-2.52,7.42-2.8,8.45-1.5,5.59-4,9.17-4,5.68,0-2.11,2.42-10.9,4.12-15,1.58-3.78,1.34-5.46-.52-3.6-1.16,1.15-4.25,9.14-5.49,14.18-.85,3.46-2.41,5.52-3.41,4.52-.6-.6-.14-2.44,3.12-12.74.72-2.26,1.11-4.31.86-4.55-.75-.76-2.44.74-2.44,2.16a8.21,8.21,0,0,1-.82,3c-1.38,2.74-2.93,8.22-2.93,10.38,0,1.41-.57,2-1.88,2-2.27,0-2.28.6.06-6.51,1.06-3.23,1.77-6.78,1.57-7.89-.35-2-.38-2-1.06-.15a37.87,37.87,0,0,1-1.57,3.51,11,11,0,0,0-.87,4.27c0,2.86-1.92,7.69-3.05,7.7-.39,0-.71-1.07-.71-2.39s-.4-2.15-.94-1.82c-2.21,1.36.22,11.51,2.84,11.84a13.15,13.15,0,0,1,4.1,1.29,2.16,2.16,0,0,0,3-.88c.67-.91,1.65-1.38,2.18-1s1.82-.26,2.88-1.32a7.5,7.5,0,0,1,2.54-1.91c1.81,0,4.06-3.43,4.06-6.2,0-3.47,1.71-7.87,3.06-7.87.92,0,.49,5.42-.73,9.19-.64,2-.48,2.11,1.77,1.55,4.07-1,3,1.55-2.34,5.5s-12.31,7.77-15.92,8.64c-3.45.83-7.43-2.81-11.31-10.36-2.46-4.78-3.57-6.07-5-5.87-3.08.43-2.32,7.94,1.42,14.1,3.36,5.55,10.11,12.91,11.83,12.91a1.59,1.59,0,0,1,1.45.83c.67,1.78,10.64,8.89,13.38,9.54C113.11,160.51,114,160.22,114.31,157.94Zm11.79-17.4a19,19,0,0,0,.58-2.82.87.87,0,0,1,.95-.7c.52,0,.94,1.26.94,2.81,0,2-.46,2.82-1.52,2.82S125.69,142.09,126.1,140.54Zm10.47,16.37c-.29-.29-1,0-1.68.64-.92.92-.81,1,.53.52.92-.35,1.44-.87,1.15-1.16Zm-55.83-8.19c1.41-1.71.4-3.12-1.14-1.58S76,155,76.66,156.08c.31.48,1.08-.65,1.72-2.53A19.66,19.66,0,0,1,80.74,148.72Zm53.46-3.3c0-1.45-.86-1.06-4.74,2.16-5,4.15-4.67,5.21.52,1.64C132.3,147.62,134.2,145.91,134.2,145.42Zm13.55-1.74c.29-.47,3-2.21,5.93-3.86C160,136.29,174,125.94,180,120.35a16.83,16.83,0,0,1,2.89-2,12,12,0,0,0,3.37-4.11c1.71-3.19,1.71-3.28-.29-6.86a65,65,0,0,1-3.09-6.31c-1.08-2.72-2.7-3-7.57-1.07-1.23.48-1.78-.08-2.39-2.45-1.28-4.94-3.06-4.52-3.06.73,0,3.55-.41,4.8-1.91,5.74-2.62,1.63-3.35.94-4.75-4.5-.66-2.58-1.5-4.69-1.86-4.69-1.09,0-1.63,2.31-1.14,4.88.64,3.38-1.2,6.38-3.92,6.38s-3.39-.92-4.13-6.82c-.84-6.79-2.93-7-2.93-.33,0,4.18-.36,5.4-1.81,6.17-2.63,1.41-4.76-1.1-4.76-5.59,0-2-.63-4.25-1.41-5a4.94,4.94,0,0,1-1.41-2.88c0-2.39-1.62-1.69-2.29,1a4.23,4.23,0,0,0,.84,4.06c3.12,3.45.58,8.46-2.85,5.62-1.13-.94-1.4-2.69-1.16-7.62.2-4.18-.05-6.4-.72-6.4-1.47,0-3.2,6.47-3.2,12,0,3.92-.32,4.79-1.88,5.2-1,.27-1.88,1.06-1.88,1.76,0,1.69,10,5.48,14.42,5.48,3.11,0,3.47-.23,2.95-1.88s-.17-1.88,9.85-1.88c8.38,0,11.62-.41,16.43-2.09,3.29-1.14,6.29-1.77,6.67-1.39,1,1-2.54,3.42-5,3.45-1.17,0-2.12.46-2.12,1s-2.42,1-5.39,1c-6.19,0-9.62.75-9.62,2,0,.55,2.48.67,6.33.3,6.87-.66,7.58-.87,15.2-4.5,4.79-2.29,6.62-2.5,6.62-.77,0,1.16-9.42,6-14.07,7.31a39.3,39.3,0,0,1-8,1.2c-5.51.09-5.17-.36-8.94,12-1.33,4.37-3.36,5.55-2.43,1.4,1.48-6.6,2.35-12.77,1.9-13.5-1-1.65-2.07-.71-2.51,2.24-.25,1.68-1.1,6.64-1.88,11-2.49,13.9-2.57,15-1.15,15a2.33,2.33,0,0,0,1.81-.85Zm-14.29-34.05c-1.77-1.78-1.35-2.64,1.28-2.64,1.75,0,2.33.43,2.11,1.56C136.46,110.58,134.91,111.07,133.46,109.63Zm8.65,31.85c.24-1.17.7-4.65,1-7.75.63-6,2-12.17,3.31-14.68,1.13-2.2.25-2.68-4.92-2.68-4.84,0-10.44-2.31-15.13-6.23-3.53-3-5.33-2.85-5.33.3,0,4.2,2.07,9,6.06,14,2.09,2.62,5.91,8,8.49,11.92s5,7.18,5.38,7.21.88-.91,1.12-2.07Zm-67-9.26c0-1.29-3.4-1-4.56.41-.82,1-.47,1.16,1.77.83C73.82,133.24,75.08,132.68,75.08,132.22Zm18.12-18.9c.29-1.93.18-3.52-.25-3.52-1.11,0-1.92,2.49-1.92,5.9C91,119.52,92.5,117.91,93.2,113.32Zm97-11.35c-1.43-2.16-4.4-3.28-4.4-1.66,0,1.45,3.91,4.81,4.89,4.21C191.18,104.23,191,103.08,190.22,102Zm-32.95-3.73c-.49-3.27-.24-4.53,1.3-6.48,2.41-3.07,2.41-4.2,0-5-4.2-1.33-11.2-9.21-11.2-12.6,0-2.42,3.08-.63,5.33,3.09,2.91,4.83,10.05,10,13.79,10,4.31,0,10.8-6.33,10.88-10.62,0-1.29-.43-1.56-1.87-1.11s-1.82.22-1.64-.64-.91-1.35-3-1.55c-4.14-.39-7-2.73-5.52-4.52,1.19-1.42,3.92-1,9.12,1.58,4,1.93,4.85,1.66,4.85-1.5,0-2.25-1.45-2.76-7.27-2.54-.72,0-1.18-1.2-1.18-3.14,0-2.64.35-3.18,2-3.18a7.69,7.69,0,0,1,4.24,2c2.94,2.76,4.82,1.18,3.22-2.7A29.24,29.24,0,0,1,179,51.62c-.19-4.54,0-5.17,1.58-5.17,3.32,0,2.57-2.16-2.53-7.25-6.51-6.52-11.43-8.78-20.94-9.61-8-.7-7.91-.73-11.74,3.94-2.09,2.54-3.19,7.14-1.59,6.6a2.9,2.9,0,0,0,1.5-2.2c.52-3.31,2.36-6,4.1-6,2.21,0,2.15,1.73-.16,4.69a10.32,10.32,0,0,0-1.86,3.06,17.41,17.41,0,0,1-2.13,4,7.84,7.84,0,0,1-5,3.83c-2.51.48-3,1.06-3.51,4a47.55,47.55,0,0,0-.58,5.93c0,1.38-.54,2.69-1.18,2.92-.81.28-.56,1,.81,2.19,1.54,1.38,2.22,3.68,3.05,10.33.58,4.7,1.06,10.1,1.06,12,0,2.17.52,3.64,1.39,4,1.89.72,4.24,5.68,4.24,8.94,0,1.47.43,2.67.94,2.67s.94-1.82.94-4c0-4.31,1.23-6.29,3.91-6.29,2.3,0,3.6,2.86,3.6,7.92,0,3.32.34,4.28,1.51,4.28s1.41-.69.91-4.05Zm6.47-47a17.8,17.8,0,0,0-5-4.53,3.71,3.71,0,0,1-2.46-4c0-2.73.13-2.81,5.07-3.09,5.73-.33,10,1.08,11.46,3.78,1.36,2.54.84,2.72-3.43,1.2a24.21,24.21,0,0,0-5.83-1.37c-3.63-.07-2.31,1.67,2.25,3,5,1.42,7,3.64,5.39,6.15-1.83,2.92-4.67,2.5-7.43-1.12ZM168,99.47a8.4,8.4,0,0,0-1.13-3.71c-.94-1.49-.83-2.15.61-3.74,1.91-2.1.69-2.59-2.37-1-1.37.74-1.69,1.6-1.27,3.52C165,100.19,168,103.64,168,99.47ZM176,91a2.47,2.47,0,0,0-1.93-.94c-.74,0-1.35.43-1.35.94s.87.94,1.93.94S176.28,91.55,176,91Zm50.21-16.89c0-.52-.84-.94-1.87-.94s-1.88.42-1.88.94.84.94,1.88.94S226.17,74.66,226.17,74.14Zm-8.44-5a9.45,9.45,0,0,1,1.61-4.46c3.34-4.8,7.77-7.2,7.77-4.2,0,.78-.48,1.41-1.06,1.41-1.73,0-5.51,5-5.51,7.27,0,3.4,1.81,2.44,3.7-2S229,60.72,229,63.67a7.1,7.1,0,0,1-1.38,3.49c-2.05,2.71-1.72,4.16.95,4.16,2.29,0,6-2.14,10.52-6,2.44-2.11,2.8-6.32.68-8.08a2.87,2.87,0,0,1-.89-2.87c.66-2.1-2-3.68-6.2-3.68-2.29,0-4.13,1-7.6,4.29-3.9,3.64-5,4.2-7.27,3.7s-3.05-.11-4.71,2c-1.44,1.84-1.86,3.3-1.44,5C212.88,70.6,217.73,73.41,217.73,69.19Zm-4.52-4.49a3,3,0,0,1,1.64-1.65c.71-.23,1.06.12.82.83A2.94,2.94,0,0,1,214,65.52C213.33,65.75,213,65.4,213.21,64.7Zm24.73-1.76a1.08,1.08,0,0,1,.42-1.46c.52-.32.95.07.95.87C239.31,64,238.75,64.24,237.94,62.94ZM133.83,56.7a10.2,10.2,0,0,1-.57-3c0-1.11-.28-1.24-1-.49-1.18,1.18-.27,5,1.2,5C134,58.19,134.15,57.52,133.83,56.7Zm-10.89-5.48c0-4.09-3.49-10.87-5.6-10.87h-2.61c-.39,0-.7.74-.7,1.65a1.24,1.24,0,0,0,1.64,1.36c1.26-.21,1.64.38,1.64,2.58,0,2-.45,2.86-1.52,2.86-3.29,0,2.46,4.46,6,4.63C122.41,53.47,122.94,52.47,122.94,51.22Zm3.75-2.42c0-.52.85-.94,1.88-.94,1.8,0,2.64-2.25,1.17-3.12s-4.92,1.25-4.92,3.09c0,1.05.42,1.91.94,1.91A.94.94,0,0,0,126.69,48.8Zm14.55-6.57c.32-.51.13-.94-.41-.94s-1-1.08-1-2.41c0-2.06-.3-2.31-2.11-1.77-3,.92-3.86,1.94-3.12,3.86.55,1.43.77,1.48,1.55.3s1-1.16,1.87.26c1.08,1.84,2.35,2.11,3.22.7Zm81.18-16.48c0-1.46-2.08-4.15-2.84-3.68-.52.32-.4,1.3.27,2.37,1.07,1.73,2.57,2.48,2.57,1.31ZM207,299.54c-.8-1.29.05-12.84.94-12.84.46,0,1,3.07,1.11,6.81.24,6.11-.55,8.46-2.05,6ZM188.28,47.16c-.27-.9-.77-3.26-1.12-5.24s-1.22-3.81-1.93-4.09a2.1,2.1,0,0,1-1.29-1.8c0-1.4,2.57-1.73,4.41-.56,1.49.94,2.8,13.33,1.42,13.33C189.21,48.8,188.54,48.06,188.28,47.16Zm4.11-6.86c0-1.06.42-1.67.94-1.35a2.5,2.5,0,0,1,.93,1.93c0,.74-.42,1.35-.93,1.35S192.39,41.36,192.39,40.3Zm3.75.11c0-1.06.42-1.93.94-1.93s.94.61.94,1.35a2.47,2.47,0,0,1-.94,1.93C196.56,42.08,196.14,41.47,196.14,40.41Zm-50-28.77c-1.32-1.32,5.6-10.7,7.89-10.7,1.52,0,.79,2.37-1.08,3.53a4.06,4.06,0,0,0-1.9,2.81c-.06,3.1-3.3,6-4.91,4.36Zm12.91-9.76c-.33-.54.46-.94,1.82-.94s2.41.42,2.41.94-.82.94-1.83.94A3.15,3.15,0,0,1,159.07,1.88Z" transform="translate(-0.27 0)"/></svg>